<?xml version="1.0" encoding="UTF-8"?>
<svg width="259px" height="71px" viewBox="0 0 259 71" version="1.1" xmlns="http://www.w3.org/2000/svg" xmlns:xlink="http://www.w3.org/1999/xlink">
    <!-- Generator: Sketch 45.2 (43514) - http://www.bohemiancoding.com/sketch -->
    <title>AATC logo White</title>
    <desc>Created with Sketch.</desc>
    <defs></defs>
    <g id="Welcome" stroke="none" stroke-width="1" fill="none" fill-rule="evenodd">
        <g id="Desktop-HD" transform="translate(-109.000000, -624.000000)" fill="#FFFFFF">
            <g id="Hero">
                <g id="AATC-logo-White" transform="translate(107.000000, 622.000000)">
                    <g id="aatc-logo-color" transform="translate(2.120000, 1.584507)">
                        <path d="M55.0384847,49.9412569 C53.9496619,53.3458296 52.3724123,56.5755571 50.3557232,59.5301282 C47.543928,63.6320342 44.6145293,67.723286 40.0066064,67.8085204 C35.3986836,67.8937548 34.0195141,65.1342907 28.8556469,65.1342907 C23.6917798,65.1342907 22.0987855,67.7126317 17.822291,67.8831005 C13.3747367,68.0535693 9.98561475,63.4509111 7.13105465,59.3596594 C1.32571331,50.9960327 -3.10045854,35.7284188 2.85456011,25.4257093 C5.69340313,20.3477121 11.0078823,17.1368386 16.8386973,16.9768482 C21.2114129,16.8916138 25.3275389,19.9067811 27.9896568,19.9067811 C30.6517746,19.9067811 35.6659645,16.2843187 40.9260527,16.8170337 C45.8676656,16.994048 50.4412035,19.4661081 53.285122,23.4972807 C52.9643849,23.6997125 45.9081689,27.7590013 45.9830075,36.2824425 C46.0171477,42.2202801 49.5821934,47.5723899 55.0598672,49.909294 L55.0384847,49.9412569 Z M37.4727834,11.2661427 C40.0248271,8.28681386 41.2894505,4.42177786 40.9902002,0.515952527 C37.1389944,0.884160545 33.5763306,2.71082059 31.0366591,5.61936292 C28.8984119,8.14443236 26.9312244,12.1717583 27.4550949,16.0392697 C31.2184101,16.3482445 35.0993289,14.1321498 37.4514009,11.2874513 L37.4727834,11.2661427 Z" id="Shape" fill-rule="nonzero"></path>
                        <path d="M95.4513581,36.7938489 L92.5433418,36.7938489 L90.9503476,31.8182902 L85.4229784,31.8182902 L83.9048229,36.7938489 L81.0823365,36.7938489 L86.5562495,19.8428553 L89.9346802,19.8428553 L95.4513581,36.7938489 Z M90.5226982,29.7193928 L89.0793813,25.2872034 C88.929704,24.8326198 88.6446043,23.7671897 88.2240824,22.0909129 L88.2240824,22.0909129 C88.0530226,22.8011997 87.7821779,23.8666298 87.4115484,25.2872034 L86.0003052,29.7193928 L90.5226982,29.7193928 Z" id="Shape" fill-rule="nonzero"></path>
                        <path d="M107.735589,36.7938489 L105.340752,36.7938489 L105.191074,34.9293462 L105.191074,34.9293462 C104.394535,36.3076915 102.894049,37.129286 101.299464,37.0602065 C100.213139,37.1125903 99.1557478,36.7019422 98.3914481,35.9308505 C97.4484882,34.7508348 96.9899756,33.2582016 97.1084998,31.7543643 L97.1084998,24.5627109 L99.834765,24.5627109 L99.834765,31.3068837 C99.834765,33.6579329 100.643735,34.8334575 102.261676,34.8334575 C103.404485,34.8821916 104.438353,34.1618575 104.784807,33.0754977 C104.913408,32.73526 104.975113,32.3735412 104.966558,32.0100676 L104.966558,24.5520566 L107.628676,24.5520566 L107.628676,33.2566208 C107.628676,34.4214911 107.664314,35.6005672 107.735589,36.7938489 Z" id="Shape" fill-rule="nonzero"></path>
                        <path d="M117.250789,26.6083367 L114.257243,26.6083367 L114.257243,32.5427826 C114.257243,34.0485906 114.788241,34.805046 115.850237,34.8121489 C116.256729,34.8202348 116.662625,34.7772797 117.058347,34.6842972 L117.133185,36.7512317 C116.443627,36.9753838 115.719755,37.0763759 114.994938,37.0495522 C114.051078,37.1027536 113.130506,36.7451265 112.471806,36.0693564 C111.775566,35.119405 111.452313,33.9483462 111.563051,32.7771773 L111.563051,26.6189911 L109.766924,26.6189911 L109.766924,24.5840195 L111.563051,24.5840195 L111.563051,22.3466162 L114.23586,21.5368893 L114.23586,24.5840195 L117.250789,24.5840195 L117.250789,26.6189911 L117.250789,26.6083367 Z" id="Shape" fill-rule="nonzero"></path>
                        <path d="M130.283406,36.7938489 L127.557141,36.7938489 L127.557141,29.8472444 C127.557141,27.6595612 126.733916,26.5621681 125.087465,26.5550652 C123.882271,26.5128374 122.806364,27.3026401 122.489495,28.4621852 C122.39779,28.7806865 122.354544,29.1110943 122.3612,29.4423809 L122.3612,36.7938489 L119.634935,36.7938489 L119.634935,18.9585483 L122.3612,18.9585483 L122.3612,26.3313249 L122.3612,26.3313249 C123.127831,25.0375672 124.542903,24.265032 126.049677,24.3176619 C127.090535,24.2746617 128.103373,24.6599055 128.85078,25.3830921 C129.851011,26.5071904 130.352332,27.9867429 130.240641,29.4849981 L130.240641,36.7512317 L130.283406,36.7938489 Z" id="Shape" fill-rule="nonzero"></path>
                        <path d="M144.23547,30.5823912 C144.300718,32.2712921 143.724208,33.9225571 142.621093,35.206358 C141.473809,36.4578269 139.830322,37.1402473 138.130774,37.0708608 C136.509798,37.1338343 134.944006,36.4784733 133.854279,35.2809381 C132.764431,34.0363624 132.191021,32.4249322 132.250594,30.7741686 C132.182382,29.0676889 132.77577,27.4004972 133.907735,26.1182389 C135.054904,24.8914944 136.685132,24.229189 138.365981,24.3070076 C140.006127,24.2411164 141.592752,24.8953831 142.706623,26.0969303 C143.76906,27.3445085 144.31562,28.9480541 144.23547,30.5823912 L144.23547,30.5823912 Z M141.412983,30.6676256 C141.442574,29.6534031 141.191025,28.6506807 140.685979,27.7696556 C140.216565,26.8570945 139.266533,26.290698 138.237686,26.3100163 C137.192441,26.2803623 136.221586,26.8468054 135.735937,27.7696556 C135.226512,28.6683116 134.975,29.6893144 135.008933,30.7208971 C134.979341,31.7351196 135.230891,32.737842 135.735937,33.6188671 C136.221934,34.5217611 137.166781,35.0851822 138.194921,35.0851822 C139.223061,35.0851822 140.167909,34.5217611 140.653905,33.6188671 C141.180329,32.7258049 141.443419,31.7029276 141.412983,30.6676256 L141.412983,30.6676256 Z" id="Shape" fill-rule="nonzero"></path>
                        <path d="M153.077122,26.9599287 C152.794948,26.9087799 152.508623,26.883813 152.221823,26.8853486 C151.347023,26.8407076 150.509383,27.2420276 149.998046,27.9507787 C149.519692,28.6648517 149.280194,29.5113878 149.313807,30.3693052 L149.313807,36.761886 L146.587542,36.761886 L146.587542,28.3876051 C146.587542,26.9670316 146.555468,25.684964 146.49132,24.5414023 L148.864775,24.5414023 L148.960996,26.8853486 L149.035835,26.8853486 C149.290995,26.1218656 149.76259,25.4483711 150.393622,24.9462657 C150.962067,24.5242777 151.651979,24.2963471 152.360809,24.2963533 C152.58851,24.2778153 152.817348,24.2778153 153.045048,24.2963533 L153.045048,26.8853486 L153.077122,26.9599287 Z" id="Shape" fill-rule="nonzero"></path>
                        <path d="M158.219607,20.9189398 C158.236347,21.3635767 158.061217,21.7940724 157.738501,22.1015672 C157.401126,22.4089103 156.954935,22.569904 156.498318,22.5490479 C156.068488,22.5564373 155.654628,22.3868399 155.354355,22.0802586 C155.041742,21.7711876 154.871457,21.3469459 154.883941,20.9082855 C154.869223,20.4702372 155.044522,20.0470903 155.365047,19.7469666 C156.039834,19.1422305 157.063713,19.1422305 157.738501,19.7469666 C158.061892,20.0495671 158.23745,20.4772258 158.219607,20.9189398 L158.219607,20.9189398 Z M157.877487,36.7938489 L155.151222,36.7938489 L155.151222,24.5627109 L157.877487,24.5627109 L157.877487,36.7831946 L157.877487,36.7938489 Z" id="Shape" fill-rule="nonzero"></path>
                        <path d="M170.108262,36.7938489 L160.111956,36.7938489 L160.111956,35.206358 L165.008542,28.8137771 C165.307896,28.4089137 165.863841,27.7447956 166.676375,26.8214228 L166.676375,26.8214228 L160.593061,26.8214228 L160.593061,24.637291 L169.979967,24.637291 L169.979967,26.3206706 L165.179602,32.6386714 C164.637912,33.3489581 164.081968,34.0130762 163.511769,34.6310257 L163.511769,34.6310257 L170.09757,34.6310257 L170.09757,36.8151575 L170.108262,36.7938489 Z" id="Shape" fill-rule="nonzero"></path>
                        <path d="M182.20005,30.1029476 C182.208228,30.5170475 182.176003,30.9309594 182.103829,31.3388466 L173.914342,31.3388466 C173.87895,32.3917544 174.313529,33.4061719 175.101069,34.108965 C175.861684,34.7012817 176.809505,35.0035365 177.773878,34.9613091 C178.901456,34.9766862 180.021957,34.7815471 181.07747,34.3859768 L181.50512,36.2717882 C180.199783,36.8030185 178.79861,37.060524 177.388994,37.0282436 C175.72681,37.1191387 174.102329,36.5125458 172.909365,35.3555182 C171.786209,34.1379082 171.200716,32.5218494 171.284298,30.8700573 C171.22538,29.2047942 171.763595,27.573066 172.802453,26.2673991 C173.835417,24.9751879 175.422176,24.2478003 177.078948,24.3070076 C178.66676,24.2200053 180.185592,24.9626706 181.088161,26.2673991 C181.847542,27.4007277 182.235975,28.7406577 182.20005,30.1029476 L182.20005,30.1029476 Z M179.602079,29.3997637 C179.64462,28.6519117 179.458204,27.9088228 179.067518,27.2689034 C178.613709,26.5331538 177.795015,26.1007449 176.92927,26.1395475 C176.084736,26.1255766 175.286528,26.5233017 174.791023,27.2049776 C174.320976,27.8230522 174.038951,28.5626586 173.978489,29.3358379 L179.655536,29.3358379 L179.602079,29.3997637 Z" id="Shape" fill-rule="nonzero"></path>
                        <path d="M195.403727,36.7938489 L192.976816,36.7938489 L192.848521,34.8334575 L192.773683,34.8334575 C192.037653,36.3042022 190.484344,37.1875389 188.839308,37.0708608 C187.405998,37.0937693 186.043262,36.4521503 185.150831,35.3342096 C184.132672,34.0574153 183.612422,32.4566441 183.686132,30.8274401 C183.606478,29.0850726 184.17357,27.3745044 185.279126,26.0223502 C186.22145,24.9174869 187.608888,24.2886567 189.063824,24.3070076 C190.436608,24.1717947 191.769884,24.8135053 192.517093,25.9690787 L192.517093,25.9690787 L192.517093,18.947894 L195.296814,18.947894 L195.296814,33.4910155 C195.296814,34.6842972 195.332452,35.7852417 195.403727,36.7938489 Z M192.58124,31.637167 L192.58124,29.6021955 C192.587829,29.3162024 192.562731,29.0303581 192.506402,28.7498513 C192.365004,28.1084004 192.020124,27.5293608 191.522808,27.0984346 C191.019857,26.6534375 190.367046,26.4137588 189.694607,26.4272136 C188.742431,26.3947876 187.83946,26.8487304 187.29977,27.6311497 C186.685032,28.5418444 186.377911,29.6242504 186.423088,30.7208971 C186.374908,31.7651403 186.667485,32.7968381 187.257005,33.6614843 C187.795963,34.4391251 188.693163,34.8921895 189.64115,34.8654204 C190.472724,34.88736 191.265691,34.5159532 191.779398,33.863916 C192.308184,33.2427705 192.593066,32.4516416 192.58124,31.637167 L192.58124,31.637167 Z" id="Shape" fill-rule="nonzero"></path>
                        <polygon id="Shape" fill-rule="nonzero" points="92.0301625 50.6764037 87.1549587 50.6764037 87.1549587 65.3367225 84.4286935 65.3367225 84.4286935 50.6764037 79.5855634 50.6764037 79.5855634 48.3857289 92.0301625 48.3857289"></polygon>
                        <path d="M99.1719084,55.5241109 C98.8897675,55.4727169 98.6034194,55.447748 98.3166095,55.4495307 C97.4418088,55.4048898 96.6041695,55.8062097 96.0928323,56.5149609 C95.6144786,57.2290339 95.3749802,58.07557 95.4085932,58.9334873 L95.4085932,65.3260682 L92.6609454,65.3260682 L92.6609454,56.9517872 C92.6609454,55.5312137 92.6288717,54.2491461 92.5647243,53.1055844 L94.9381788,53.1055844 L95.0343999,55.4495307 L95.1092386,55.4495307 C95.3638454,54.6857709 95.8355424,54.0121311 96.4670256,53.5104479 C97.0354708,53.0884598 97.7253826,52.8605293 98.4342131,52.8605355 C98.6619115,52.84195 98.8907537,52.84195 99.1184522,52.8605355 L99.1184522,55.5241109 L99.1719084,55.5241109 Z" id="Shape" fill-rule="nonzero"></path>
                        <path d="M110.183882,65.3473768 L107.735589,65.3473768 L107.532455,63.941009 L107.457617,63.941009 C106.619344,65.0612357 105.276652,65.6923175 103.876052,65.6243886 C102.833305,65.6791422 101.815906,65.2921634 101.074948,64.5589585 C100.433552,63.8889671 100.087169,62.9914822 100.112737,62.0658519 C100.061049,60.6677342 100.783738,59.3542032 101.994395,58.6458212 C103.613313,57.76927 105.447917,57.366682 107.286557,57.4845023 L107.286557,57.260762 C107.286557,55.648411 106.438385,54.8422356 104.742043,54.8422356 C103.606235,54.8187487 102.489307,55.1341183 101.534672,55.7478512 L100.978727,53.9579285 C102.254417,53.2152208 103.714373,52.8459538 105.191074,52.8924984 C108.398445,52.8924984 110.002131,54.5794295 110.002131,57.9532916 L110.002131,62.4600611 C109.989022,63.4257034 110.049782,64.3909371 110.183882,65.3473768 Z M107.361395,61.149582 L107.361395,59.2531164 C104.346467,59.2033963 102.839002,60.0237775 102.839002,61.71426 C102.796247,62.2466999 102.987368,62.7714396 103.362873,63.1525907 C103.726852,63.4757077 104.201374,63.6473183 104.688586,63.6320342 C105.29165,63.6313074 105.877723,63.4328805 106.356419,63.0673563 C106.845142,62.7227124 107.182033,62.2038615 107.297248,61.6183713 C107.333537,61.4647525 107.35148,61.3073981 107.350704,61.149582 L107.361395,61.149582 Z" id="Shape" fill-rule="nonzero"></path>
                        <path d="M116.181665,49.4724676 C116.198406,49.9171045 116.023276,50.3476002 115.70056,50.6550951 C115.363185,50.9624381 114.916994,51.1234319 114.460376,51.1025758 C114.030547,51.1099652 113.616687,50.9403678 113.316414,50.6337865 C113.003801,50.3247155 112.833516,49.9004737 112.846,49.4618133 C112.831282,49.023765 113.006581,48.6006182 113.327105,48.3004945 C114.001893,47.6957583 115.025772,47.6957583 115.70056,48.3004945 C116.023951,48.603095 116.199509,49.0307536 116.181665,49.4724676 L116.181665,49.4724676 Z M115.882311,65.3473768 L113.156046,65.3473768 L113.156046,53.1162387 L115.882311,53.1162387 L115.882311,65.3367225 L115.882311,65.3473768 Z" id="Shape" fill-rule="nonzero"></path>
                        <path d="M129.663314,65.3473768 L126.937049,65.3473768 L126.937049,58.3475007 C126.937049,56.2166404 126.113824,55.1512103 124.467374,55.1512103 C123.70814,55.130767 122.982033,55.4611053 122.500186,56.0461716 C121.995081,56.6405638 121.725152,57.3983019 121.741108,58.1770319 L121.741108,65.4326112 L119.014843,65.4326112 L119.014843,56.589541 C119.014843,55.517008 118.982769,54.3521377 118.918622,53.0949301 L121.313459,53.0949301 L121.441754,55.0020501 L121.527284,55.0020501 C121.858572,54.3931297 122.345413,53.8822415 122.938527,53.5211022 C123.680254,53.0651235 124.536762,52.8286425 125.408202,52.8392269 C126.465119,52.7952529 127.494872,53.1795958 128.262762,53.904657 C129.281224,54.9977841 129.793132,56.4663674 129.674006,57.9532916 L129.674006,65.2727967 L129.663314,65.3473768 Z" id="Shape" fill-rule="nonzero"></path>
                        <path d="M135.821467,49.4724676 C135.838207,49.9171045 135.663077,50.3476002 135.340361,50.6550951 C135.002986,50.9624381 134.556795,51.1234319 134.100178,51.1025758 C133.670348,51.1099652 133.256488,50.9403678 132.956215,50.6337865 C132.643602,50.3247155 132.473317,49.9004737 132.485801,49.4618133 C132.471083,49.023765 132.646382,48.6006182 132.966906,48.3004945 C133.641694,47.6957583 134.665573,47.6957583 135.340361,48.3004945 C135.663752,48.603095 135.83931,49.0307536 135.821467,49.4724676 L135.821467,49.4724676 Z M135.522112,65.3473768 L132.795847,65.3473768 L132.795847,53.1162387 L135.522112,53.1162387 L135.522112,65.3367225 L135.522112,65.3473768 Z" id="Shape" fill-rule="nonzero"></path>
                        <path d="M149.324498,65.3473768 L146.598233,65.3473768 L146.598233,58.3475007 C146.598233,56.2166404 145.775008,55.1512103 144.128557,55.1512103 C143.369324,55.130767 142.643217,55.4611053 142.16137,56.0461716 C141.656265,56.6405638 141.386335,57.3983019 141.402292,58.1770319 L141.402292,65.4326112 L138.676027,65.4326112 L138.676027,56.589541 C138.676027,55.517008 138.643953,54.3521377 138.579806,53.0949301 L140.974643,53.0949301 L141.102937,55.0020501 L141.177776,55.0020501 C141.509064,54.3931297 141.995906,53.8822415 142.589019,53.5211022 C143.330747,53.0651235 144.187255,52.8286425 145.058695,52.8392269 C146.115612,52.7952529 147.145365,53.1795958 147.913255,53.904657 C148.931717,54.9977841 149.443625,56.4663674 149.324498,57.9532916 L149.324498,65.2727967 L149.324498,65.3473768 Z" id="Shape" fill-rule="nonzero"></path>
                        <path d="M162.859603,53.1162387 C162.788328,54.1035373 162.756255,55.2613047 162.763382,56.589541 L162.763382,63.5787627 C162.763382,66.2139266 162.175364,68.0571208 160.999328,69.1083452 C159.72378,70.14876 158.100695,70.6701586 156.455553,70.5679845 C155.021121,70.6317668 153.596835,70.2999669 152.339427,69.6090974 L152.97021,67.4782371 C154.022781,68.1044488 155.229847,68.425467 156.455553,68.4051613 C158.864645,68.4051613 160.069191,67.1124394 160.069191,64.5269956 L160.069191,63.4082939 L160.069191,63.4082939 C159.309153,64.6541657 157.915155,65.373417 156.455553,65.2727967 C155.041825,65.3019119 153.693304,64.681063 152.79915,63.589417 C151.815872,62.3899897 151.302996,60.8756046 151.355833,59.3276965 C151.277728,57.5889302 151.875066,55.887055 153.023666,54.575878 C153.968154,53.4898732 155.345,52.8739924 156.786981,52.8924984 C158.257968,52.7882957 159.655737,53.5450573 160.368545,54.8315813 L160.368545,54.8315813 L160.464766,53.1482016 L162.859603,53.1482016 L162.859603,53.1162387 Z M160.015734,60.1161148 L160.015734,57.9852545 C160.037958,57.2036477 159.763008,56.4425361 159.245965,55.8543942 C158.734817,55.2666334 157.98388,54.9414375 157.203939,54.9700872 C156.293072,54.9584706 155.434296,55.3923463 154.905323,56.131406 C154.266433,57.0316661 153.950105,58.119977 154.00726,59.2211535 C153.957165,60.2357595 154.250876,61.2376812 154.841176,62.0658519 C155.375503,62.8350585 156.265722,63.2806371 157.203939,63.2484794 C157.794712,63.2540275 158.370421,63.0627875 158.839698,62.70511 C159.34438,62.3412596 159.719015,61.8260488 159.908822,61.2348164 C160.004416,60.87004 160.040514,60.4923158 160.015734,60.1161148 Z" id="Shape" fill-rule="nonzero"></path>
                        <path d="M183.15157,53.3186705 C183.216874,54.7047347 182.715377,56.0579449 181.761709,57.0689846 C180.348065,58.3736036 178.455614,59.0369515 176.533695,58.9015244 C176.010333,58.9134293 175.487162,58.8705775 174.972774,58.7736728 L174.972774,65.3367225 L172.246509,65.3367225 L172.246509,48.6094692 C173.719204,48.3608856 175.211155,48.2432254 176.704754,48.2578773 C178.446282,48.131378 180.176682,48.621914 181.590649,49.6429365 C182.643418,50.5688656 183.217577,51.9209242 183.15157,53.3186705 L183.15157,53.3186705 Z M180.425305,53.4465221 C180.48104,52.5804335 180.129376,51.7377801 179.473785,51.1665016 C178.707733,50.5985568 177.764636,50.3192474 176.811667,50.3780833 C176.195192,50.3648347 175.578984,50.4148179 174.972774,50.5272435 L174.972774,56.589541 C175.4921,56.7035739 176.023506,56.7536684 176.555077,56.7387012 C177.57875,56.7931379 178.587987,56.4793136 179.398946,55.8543942 C180.086989,55.2464055 180.46392,54.3621134 180.425305,53.4465221 L180.425305,53.4465221 Z" id="Shape" fill-rule="nonzero"></path>
                        <path d="M191.939766,55.5241109 C191.657625,55.4727169 191.371277,55.447748 191.084467,55.4495307 C190.209667,55.4048898 189.372027,55.8062097 188.86069,56.5149609 C188.381661,57.2287238 188.1421,58.075483 188.176451,58.9334873 L188.176451,65.3260682 L185.450186,65.3260682 L185.450186,56.9517872 C185.450186,55.5312137 185.418112,54.2491461 185.353965,53.1055844 L187.727419,53.1055844 L187.82364,55.4495307 L187.898479,55.4495307 C188.156014,54.6844566 188.631529,54.0106694 189.266957,53.5104479 C189.835402,53.0884598 190.525314,52.8605293 191.234145,52.8605355 C191.461845,52.8419975 191.690683,52.8419975 191.918384,52.8605355 L191.918384,55.5241109 L191.939766,55.5241109 Z" id="Shape" fill-rule="nonzero"></path>
                        <path d="M204.705102,59.135919 C204.770351,60.8248199 204.193841,62.4760849 203.090726,63.7598859 C201.943442,65.0113547 200.299955,65.6937751 198.600406,65.6243886 C196.979431,65.6873622 195.413638,65.0320011 194.323912,63.834466 C193.234064,62.5898903 192.660654,60.9784601 192.720226,59.3276965 C192.652015,57.6212168 193.245403,55.9540251 194.377368,54.6717667 C195.52369,53.4437991 197.154512,52.7812522 198.835614,52.8605355 C200.475759,52.7946443 202.062385,53.448911 203.176256,54.6504581 C204.243483,55.8953254 204.79071,57.500824 204.705102,59.135919 L204.705102,59.135919 Z M201.882616,59.2211535 C201.912207,58.2069309 201.660658,57.2042085 201.155612,56.3231835 C200.686198,55.4106224 199.736165,54.8442259 198.707319,54.8635442 C197.662074,54.8338901 196.691218,55.4003333 196.205569,56.3231835 C195.695627,57.2216349 195.444079,58.2427848 195.478565,59.274425 C195.448419,60.2887074 195.700005,61.2915776 196.205569,62.1723949 C196.686535,63.081639 197.63315,63.6507479 198.664554,63.6507479 C199.695958,63.6507479 200.642572,63.081639 201.123538,62.1723949 C201.650503,61.2795552 201.913634,60.2565199 201.882616,59.2211535 L201.882616,59.2211535 Z" id="Shape" fill-rule="nonzero"></path>
                        <path d="M217.05348,53.1162387 L212.402793,65.3473768 L209.751366,65.3473768 L205.261047,53.126893 L208.190445,53.126893 L210.328693,59.594054 C210.685067,60.666587 210.980858,61.6965028 211.216065,62.6838014 L211.290904,62.6838014 C211.490474,61.795943 211.786265,60.7660272 212.178277,59.594054 L214.252376,53.126893 L217.106937,53.126893 L217.05348,53.1162387 Z" id="Shape" fill-rule="nonzero"></path>
                        <path d="M222.024905,49.4724676 C222.041646,49.9171045 221.866516,50.3476002 221.5438,50.6550951 C221.206425,50.9624381 220.760234,51.1234319 220.303616,51.1025758 C219.873786,51.1099652 219.459927,50.9403678 219.159654,50.6337865 C218.847041,50.3247155 218.676756,49.9004737 218.68924,49.4618133 C218.674522,49.023765 218.849821,48.6006182 219.170345,48.3004945 C219.845133,47.6957583 220.869012,47.6957583 221.5438,48.3004945 C221.867191,48.603095 222.042748,49.0307536 222.024905,49.4724676 L222.024905,49.4724676 Z M221.725551,65.3473768 L218.999285,65.3473768 L218.999285,53.1162387 L221.725551,53.1162387 L221.725551,65.3367225 L221.725551,65.3473768 Z" id="Shape" fill-rule="nonzero"></path>
                        <path d="M235.837983,65.3473768 L233.411072,65.3473768 L233.282777,63.3869853 L233.207938,63.3869853 C232.471909,64.85773 230.9186,65.7410668 229.273564,65.6243886 C227.839899,65.6489354 226.476473,65.0069914 225.585087,63.8877375 C224.566928,62.6109431 224.046678,61.0101719 224.120388,59.380968 C224.040734,57.6386005 224.607825,55.9280323 225.713382,54.575878 C226.655706,53.4710148 228.043144,52.8421846 229.498079,52.8605355 C230.874528,52.7211595 232.213009,53.3633872 232.96204,54.5226065 L232.96204,54.5226065 L232.96204,47.5014219 L235.688305,47.5014219 L235.688305,62.0445433 C235.716815,63.2378251 235.766708,64.3387696 235.837983,65.3473768 Z M233.015496,60.1906949 L233.015496,58.1557233 C233.02157,57.869747 232.996477,57.5839585 232.940658,57.3033792 C232.798547,56.6622088 232.453791,56.0833778 231.957064,55.6519625 C231.454113,55.2069653 230.801302,54.9672867 230.128862,54.9807415 C229.177129,54.9503157 228.275067,55.4038016 227.734025,56.1846775 C227.119288,57.0953722 226.812167,58.1777783 226.857344,59.274425 C226.809936,60.3185793 227.102446,61.3500388 227.691261,62.2150122 C228.230219,62.992653 229.127419,63.4457173 230.075406,63.4189482 C230.907339,63.4426007 231.701041,63.0708496 232.213654,62.4174439 C232.739441,61.795265 233.020586,61.0039629 233.004805,60.1906949 L233.015496,60.1906949 Z" id="Shape" fill-rule="nonzero"></path>
                        <path d="M249.266175,58.6564755 C249.274019,59.0705657 249.241796,59.4844454 249.169954,59.8923744 L240.991159,59.8923744 C240.955767,60.9452823 241.390346,61.9596997 242.177886,62.6624928 C242.938501,63.2548095 243.886322,63.5570643 244.850695,63.5148369 C245.978273,63.530214 247.098774,63.3350749 248.154287,62.9395047 L248.581936,64.825316 C247.276687,65.3568408 245.875452,65.6143576 244.46581,65.5817714 C242.803424,65.6739887 241.178427,65.0672031 239.986182,63.9090461 C238.864071,62.6908046 238.278742,61.0751973 238.361114,59.4235852 C238.302197,57.758322 238.840412,56.1265939 239.87927,54.820927 C240.912234,53.5287157 242.498993,52.8013282 244.155765,52.8605355 C245.743577,52.7735332 247.262409,53.5161985 248.164978,54.820927 C248.921232,55.955195 249.305962,57.2952384 249.266175,58.6564755 Z M246.668205,57.9532916 C246.710746,57.2054396 246.52433,56.4623507 246.133643,55.8224313 C245.679835,55.0866816 244.86114,54.6542728 243.995396,54.6930753 C243.150862,54.6791044 242.352654,55.0768296 241.857149,55.7585055 C241.390925,56.3777825 241.112649,57.1172882 241.055306,57.8893658 L246.614749,57.8893658 L246.668205,57.9532916 Z" id="Shape" fill-rule="nonzero"></path>
                        <path d="M258.30027,55.5241109 C258.018129,55.4727169 257.731781,55.447748 257.444971,55.4495307 C256.570171,55.4048898 255.732531,55.8062097 255.221194,56.5149609 C254.74284,57.2290339 254.503342,58.07557 254.536955,58.9334873 L254.536955,65.3260682 L251.81069,65.3260682 L251.81069,56.9517872 C251.81069,55.5312137 251.778616,54.2491461 251.714469,53.1055844 L254.098614,53.1055844 L254.194835,55.4495307 L254.269674,55.4495307 C254.527209,54.6844566 255.002724,54.0106694 255.638152,53.5104479 C256.206598,53.0884598 256.896509,52.8605293 257.60534,52.8605355 C257.83304,52.8419975 258.061879,52.8419975 258.289579,52.8605355 L258.289579,55.5241109 L258.30027,55.5241109 Z" id="Shape" fill-rule="nonzero"></path>
                    </g>
                </g>
            </g>
        </g>
    </g>
</svg>