<svg id="Layer_1" data-name="Layer 1" xmlns="http://www.w3.org/2000/svg" viewBox="0 0 241.6 65.74"><defs><style>.cls-1{fill:#231f20;}</style></defs><title>AATP Logo 2 black</title><path class="cls-1" d="M319.81,316.76a34.78,34.78,0,0,1-4.38,9c-2.63,3.85-5.37,7.69-9.68,7.77s-5.6-2.51-10.43-2.51S289,333.44,285,333.6c-4.16.16-7.33-4.16-10-8-5.43-7.85-9.57-22.18-4-31.85a15.46,15.46,0,0,1,13.08-7.93c4.09-.08,7.94,2.75,10.43,2.75s7.18-3.4,12.1-2.9a14.78,14.78,0,0,1,11.56,6.27c-0.3.19-6.9,4-6.83,12a14,14,0,0,0,8.49,12.79m-16.45-36.27a13.91,13.91,0,0,0,3.29-10.09,14.13,14.13,0,0,0-9.31,4.79c-2,2.37-3.84,6.15-3.35,9.78C297.53,285.23,301.16,283.15,303.36,280.48Z" transform="translate(-268.33 -270.39)"/><path class="cls-1" d="M357.61,304.42h-2.72l-1.49-4.67h-5.17l-1.42,4.67h-2.64l5.12-15.91h3.16ZM353,297.78l-1.35-4.16q-0.21-.64-0.8-3h0q-0.24,1-.76,3l-1.32,4.16H353Z" transform="translate(-268.33 -270.39)"/><path class="cls-1" d="M369.1,304.42h-2.24l-0.14-1.75h0a4,4,0,0,1-3.64,2,3.58,3.58,0,0,1-2.72-1.06,5.59,5.59,0,0,1-1.2-3.92v-6.75h2.55v6.33q0,3.31,2.27,3.31a2.37,2.37,0,0,0,2.36-1.65,2.66,2.66,0,0,0,.17-1v-7H369v8.17Q369,302.74,369.1,304.42Z" transform="translate(-268.33 -270.39)"/><path class="cls-1" d="M378,294.86H375.2v5.57q0,2.12,1.49,2.13a4.53,4.53,0,0,0,1.13-.12l0.07,1.94a5.76,5.76,0,0,1-2,.28,3.05,3.05,0,0,1-2.36-.92,4.52,4.52,0,0,1-.85-3.09v-5.78H371v-1.91h1.68v-2.1l2.5-.76v2.86H378v1.91Z" transform="translate(-268.33 -270.39)"/><path class="cls-1" d="M390.19,304.42h-2.55v-6.52q0-3.08-2.31-3.09a2.43,2.43,0,0,0-2.43,1.79,3.11,3.11,0,0,0-.12.92v6.9h-2.55V287.68h2.55v6.92h0a3.85,3.85,0,0,1,3.45-1.89,3.55,3.55,0,0,1,2.62,1,5.22,5.22,0,0,1,1.3,3.85v6.82Z" transform="translate(-268.33 -270.39)"/><path class="cls-1" d="M403.24,298.59a6.3,6.3,0,0,1-1.51,4.34,5.39,5.39,0,0,1-4.2,1.75,5.13,5.13,0,0,1-4-1.68,6.1,6.1,0,0,1-1.5-4.23,6.24,6.24,0,0,1,1.55-4.37,5.36,5.36,0,0,1,4.17-1.7,5.24,5.24,0,0,1,4.06,1.68A6.05,6.05,0,0,1,403.24,298.59Zm-2.64.08a5.18,5.18,0,0,0-.68-2.72,2.52,2.52,0,0,0-2.29-1.37,2.56,2.56,0,0,0-2.34,1.37,5.28,5.28,0,0,0-.68,2.77,5.18,5.18,0,0,0,.68,2.72,2.61,2.61,0,0,0,4.6,0A5.17,5.17,0,0,0,400.6,298.67Z" transform="translate(-268.33 -270.39)"/><path class="cls-1" d="M411.51,295.19a4.34,4.34,0,0,0-.8-0.07,2.41,2.41,0,0,0-2.08,1,3.82,3.82,0,0,0-.64,2.27v6h-2.55l0-7.86q0-2-.09-3.61h2.22l0.09,2.2h0.07a3.91,3.91,0,0,1,1.27-1.82,3.08,3.08,0,0,1,1.84-.61,3.93,3.93,0,0,1,.64,0v2.43Z" transform="translate(-268.33 -270.39)"/><path class="cls-1" d="M416.32,289.52a1.46,1.46,0,0,1-.45,1.11,1.61,1.61,0,0,1-1.16.42,1.46,1.46,0,0,1-1.07-.44,1.49,1.49,0,0,1-.44-1.1,1.43,1.43,0,0,1,.45-1.09,1.66,1.66,0,0,1,2.22,0A1.43,1.43,0,0,1,416.32,289.52ZM416,304.42h-2.55V292.94H416v11.47Z" transform="translate(-268.33 -270.39)"/><path class="cls-1" d="M427.44,304.42h-9.35v-1.49l4.58-6q0.42-.57,1.56-1.87v0h-5.69v-2.05h8.78v1.58l-4.49,5.93q-0.76,1-1.56,1.87v0h6.16v2.05Z" transform="translate(-268.33 -270.39)"/><path class="cls-1" d="M438.75,298.14a6,6,0,0,1-.09,1.16H431a3.34,3.34,0,0,0,1.11,2.6,3.79,3.79,0,0,0,2.5.8,8.45,8.45,0,0,0,3.09-.54l0.4,1.77a9.6,9.6,0,0,1-3.85.71,5.57,5.57,0,0,1-4.19-1.57,5.79,5.79,0,0,1-1.52-4.21,6.58,6.58,0,0,1,1.42-4.32,4.89,4.89,0,0,1,4-1.84,4.27,4.27,0,0,1,3.75,1.84A6.19,6.19,0,0,1,438.75,298.14Zm-2.43-.66a3.47,3.47,0,0,0-.5-2,2.23,2.23,0,0,0-2-1.06,2.42,2.42,0,0,0-2,1,3.8,3.8,0,0,0-.76,2h5.31Z" transform="translate(-268.33 -270.39)"/><path class="cls-1" d="M451.1,304.42h-2.27l-0.12-1.84h-0.07a3.81,3.81,0,0,1-3.68,2.1,4.32,4.32,0,0,1-3.45-1.63,6.34,6.34,0,0,1-1.37-4.23,6.66,6.66,0,0,1,1.49-4.51,4.57,4.57,0,0,1,3.54-1.61,3.44,3.44,0,0,1,3.23,1.56h0v-6.59H451v13.65Q451,303,451.1,304.42Zm-2.64-4.84v-1.91a3.65,3.65,0,0,0-.07-0.8,2.87,2.87,0,0,0-.92-1.55,2.5,2.5,0,0,0-1.71-.63,2.61,2.61,0,0,0-2.24,1.13,4.84,4.84,0,0,0-.82,2.9,4.54,4.54,0,0,0,.78,2.76,2.62,2.62,0,0,0,2.23,1.13,2.46,2.46,0,0,0,2-.94A3.16,3.16,0,0,0,448.46,299.58Z" transform="translate(-268.33 -270.39)"/><path class="cls-1" d="M354.41,317.45h-4.56v13.76H347.3V317.45h-4.53v-2.15h11.64v2.15Z" transform="translate(-268.33 -270.39)"/><path class="cls-1" d="M361.09,322a4.3,4.3,0,0,0-.8-0.07,2.41,2.41,0,0,0-2.08,1,3.82,3.82,0,0,0-.64,2.27v6H355l0-7.86q0-2-.09-3.61h2.22l0.09,2.2h0.07a3.9,3.9,0,0,1,1.27-1.82,3.08,3.08,0,0,1,1.84-.61,3.92,3.92,0,0,1,.64,0V322Z" transform="translate(-268.33 -270.39)"/><path class="cls-1" d="M371.39,331.22H369.1l-0.19-1.32h-0.07a3.94,3.94,0,0,1-3.35,1.58,3.46,3.46,0,0,1-2.62-1,3.26,3.26,0,0,1-.9-2.34,3.57,3.57,0,0,1,1.76-3.21,9.14,9.14,0,0,1,4.95-1.09v-0.21q0-2.27-2.38-2.27a5.33,5.33,0,0,0-3,.85l-0.52-1.68a7.35,7.35,0,0,1,3.94-1q4.5,0,4.5,4.75v4.23A17.84,17.84,0,0,0,371.39,331.22Zm-2.64-3.94V325.5q-4.23-.07-4.23,2.31a1.73,1.73,0,0,0,.49,1.35,1.78,1.78,0,0,0,1.24.45,2.57,2.57,0,0,0,1.56-.53,2.18,2.18,0,0,0,.88-1.36A1.88,1.88,0,0,0,368.74,327.28Z" transform="translate(-268.33 -270.39)"/><path class="cls-1" d="M377,316.32a1.46,1.46,0,0,1-.45,1.11,1.61,1.61,0,0,1-1.16.42,1.46,1.46,0,0,1-1.07-.44,1.49,1.49,0,0,1-.44-1.1,1.43,1.43,0,0,1,.45-1.09,1.66,1.66,0,0,1,2.22,0A1.43,1.43,0,0,1,377,316.32Zm-0.28,14.9h-2.55V319.74h2.55v11.47Z" transform="translate(-268.33 -270.39)"/><path class="cls-1" d="M389.61,331.22h-2.55v-6.57q0-3-2.31-3a2.3,2.3,0,0,0-1.84.84,3,3,0,0,0-.71,2v6.81h-2.55V323q0-1.51-.09-3.28h2.24l0.12,1.79H382a3.69,3.69,0,0,1,1.32-1.39,4.3,4.3,0,0,1,2.31-.64,3.66,3.66,0,0,1,2.67,1,5,5,0,0,1,1.32,3.8v6.87Z" transform="translate(-268.33 -270.39)"/><path class="cls-1" d="M395.37,316.32a1.46,1.46,0,0,1-.45,1.11,1.61,1.61,0,0,1-1.16.42,1.46,1.46,0,0,1-1.07-.44,1.49,1.49,0,0,1-.44-1.1,1.43,1.43,0,0,1,.45-1.09,1.66,1.66,0,0,1,2.22,0A1.43,1.43,0,0,1,395.37,316.32Zm-0.28,14.9h-2.55V319.74h2.55v11.47Z" transform="translate(-268.33 -270.39)"/><path class="cls-1" d="M408,331.22h-2.55v-6.57q0-3-2.31-3a2.3,2.3,0,0,0-1.84.84,3,3,0,0,0-.71,2v6.81h-2.55V323q0-1.51-.09-3.28h2.24l0.12,1.79h0.07a3.69,3.69,0,0,1,1.32-1.39,4.3,4.3,0,0,1,2.31-.64,3.66,3.66,0,0,1,2.67,1,5,5,0,0,1,1.32,3.8v6.87Z" transform="translate(-268.33 -270.39)"/><path class="cls-1" d="M420.66,319.74q-0.1,1.39-.09,3.26v6.56q0,3.71-1.65,5.19a6.11,6.11,0,0,1-4.25,1.37,7.3,7.3,0,0,1-3.85-.9l0.59-2a6.16,6.16,0,0,0,3.26.87q3.38,0,3.38-3.64V329.4h0a3.66,3.66,0,0,1-3.38,1.75,4.3,4.3,0,0,1-3.42-1.58,6,6,0,0,1-1.35-4,6.35,6.35,0,0,1,1.56-4.46,4.58,4.58,0,0,1,3.52-1.58,3.54,3.54,0,0,1,3.35,1.82h0l0.09-1.58h2.24ZM418,326.31v-2a2.91,2.91,0,0,0-.72-2,2.41,2.41,0,0,0-1.91-.83,2.6,2.6,0,0,0-2.15,1.09,4.61,4.61,0,0,0-.84,2.9,4.25,4.25,0,0,0,.78,2.67,2.58,2.58,0,0,0,2.21,1.11,2.48,2.48,0,0,0,1.53-.51,2.73,2.73,0,0,0,1-1.38A3.3,3.3,0,0,0,418,326.31Z" transform="translate(-268.33 -270.39)"/><path class="cls-1" d="M439.64,319.93a4.81,4.81,0,0,1-1.3,3.52,6.52,6.52,0,0,1-4.89,1.72,7,7,0,0,1-1.46-.12v6.16h-2.55v-15.7a23.58,23.58,0,0,1,4.17-.33,6.93,6.93,0,0,1,4.57,1.3A4.33,4.33,0,0,1,439.64,319.93Zm-2.55.12a2.62,2.62,0,0,0-.89-2.14,3.78,3.78,0,0,0-2.49-.74,8.41,8.41,0,0,0-1.72.14V323a6.08,6.08,0,0,0,1.48.14,4,4,0,0,0,2.66-.83A2.86,2.86,0,0,0,437.09,320.05Z" transform="translate(-268.33 -270.39)"/><path class="cls-1" d="M447.86,322a4.3,4.3,0,0,0-.8-0.07,2.41,2.41,0,0,0-2.08,1,3.81,3.81,0,0,0-.64,2.27v6h-2.55l0-7.86q0-2-.09-3.61h2.22l0.09,2.2h0.07a3.9,3.9,0,0,1,1.28-1.82,3.08,3.08,0,0,1,1.84-.61,3.93,3.93,0,0,1,.64,0V322Z" transform="translate(-268.33 -270.39)"/><path class="cls-1" d="M459.8,325.39a6.3,6.3,0,0,1-1.51,4.34,5.39,5.39,0,0,1-4.2,1.75,5.13,5.13,0,0,1-4-1.68,6.1,6.1,0,0,1-1.5-4.23,6.24,6.24,0,0,1,1.55-4.37,5.35,5.35,0,0,1,4.17-1.7,5.24,5.24,0,0,1,4.06,1.68A6,6,0,0,1,459.8,325.39Zm-2.64.08a5.18,5.18,0,0,0-.68-2.72,2.52,2.52,0,0,0-2.29-1.37,2.56,2.56,0,0,0-2.34,1.37,5.27,5.27,0,0,0-.68,2.77,5.17,5.17,0,0,0,.68,2.72,2.6,2.6,0,0,0,4.6,0A5.16,5.16,0,0,0,457.16,325.47Z" transform="translate(-268.33 -270.39)"/><path class="cls-1" d="M471.35,319.74L467,331.22h-2.48l-4.2-11.47h2.74l2,6.07q0.5,1.51.83,2.9h0.07q0.28-1.25.83-2.9l1.94-6.07h2.67Z" transform="translate(-268.33 -270.39)"/><path class="cls-1" d="M476,316.32a1.46,1.46,0,0,1-.45,1.11,1.61,1.61,0,0,1-1.16.42,1.46,1.46,0,0,1-1.07-.44,1.49,1.49,0,0,1-.44-1.1,1.43,1.43,0,0,1,.45-1.09,1.66,1.66,0,0,1,2.22,0A1.43,1.43,0,0,1,476,316.32Zm-0.28,14.9h-2.55V319.74h2.55v11.47Z" transform="translate(-268.33 -270.39)"/><path class="cls-1" d="M488.92,331.22h-2.27l-0.12-1.84h-0.07a3.81,3.81,0,0,1-3.68,2.1,4.31,4.31,0,0,1-3.45-1.63,6.34,6.34,0,0,1-1.37-4.23,6.66,6.66,0,0,1,1.49-4.51,4.57,4.57,0,0,1,3.54-1.61,3.44,3.44,0,0,1,3.24,1.56h0v-6.59h2.55v13.65Q488.82,329.8,488.92,331.22Zm-2.64-4.84v-1.91a3.71,3.71,0,0,0-.07-0.8,2.88,2.88,0,0,0-.92-1.55,2.5,2.5,0,0,0-1.71-.63,2.62,2.62,0,0,0-2.24,1.13,4.84,4.84,0,0,0-.82,2.9,4.55,4.55,0,0,0,.78,2.76,2.62,2.62,0,0,0,2.23,1.13,2.45,2.45,0,0,0,2-.94A3.15,3.15,0,0,0,486.27,326.38Z" transform="translate(-268.33 -270.39)"/><path class="cls-1" d="M501.48,324.94a6.05,6.05,0,0,1-.09,1.16h-7.65a3.34,3.34,0,0,0,1.11,2.6,3.79,3.79,0,0,0,2.5.8,8.45,8.45,0,0,0,3.09-.54l0.4,1.77a9.59,9.59,0,0,1-3.85.71,5.56,5.56,0,0,1-4.19-1.57,5.8,5.8,0,0,1-1.52-4.21,6.58,6.58,0,0,1,1.42-4.32,4.89,4.89,0,0,1,4-1.84,4.27,4.27,0,0,1,3.75,1.84A6.18,6.18,0,0,1,501.48,324.94Zm-2.43-.66a3.47,3.47,0,0,0-.5-2,2.23,2.23,0,0,0-2-1.06,2.42,2.42,0,0,0-2,1,3.8,3.8,0,0,0-.75,2H499Z" transform="translate(-268.33 -270.39)"/><path class="cls-1" d="M509.93,322a4.3,4.3,0,0,0-.8-0.07,2.41,2.41,0,0,0-2.08,1,3.82,3.82,0,0,0-.64,2.27v6h-2.55l0-7.86q0-2-.09-3.61H506l0.09,2.2h0.07a3.9,3.9,0,0,1,1.28-1.82,3.08,3.08,0,0,1,1.84-.61,3.93,3.93,0,0,1,.64,0V322Z" transform="translate(-268.33 -270.39)"/></svg>