<?xml version="1.0" encoding="UTF-8"?>
<svg width="37px" height="43px" viewBox="0 0 37 43" version="1.1" xmlns="http://www.w3.org/2000/svg" xmlns:xlink="http://www.w3.org/1999/xlink">
    <!-- Generator: Sketch 45.2 (43514) - http://www.bohemiancoding.com/sketch -->
    <title>Apple Logo Line</title>
    <desc>Created with Sketch.</desc>
    <defs></defs>
    <g id="Welcome" stroke="none" stroke-width="1" fill="none" fill-rule="evenodd">
        <g id="Desktop-HD" transform="translate(-338.000000, -1880.000000)" stroke="#3B3E43">
            <g id="Termini" transform="translate(78.000000, 1691.000000)">
                <g id="Picker" transform="translate(0.000000, 162.000000)">
                    <g id="Apple-IT" transform="translate(185.000000, 0.000000)">
                        <g id="Apple-Logo-Line" transform="translate(71.000000, 26.000000)">
                            <path d="M38.5116095,15.7441593 C31.8169117,8.23722997 27.3626216,13.0528221 22.6187873,13.4325522 C18.9566253,13.0430497 15.0049192,8.67391961 7.98158733,14.5883558 C5.4803944,17.875953 2.68881961,23.4716672 6.95687444,33.5590861 C8.5952982,36.6036281 9.14367317,37.904483 11.0470704,40.1465659 C16.4855874,45.1187968 17.0454102,41.5309056 23.0457044,41.0341851 C28.3150182,41.5792095 29.7789337,44.7675464 34.1106491,40.7183948 C36.1198682,38.0304082 37.8102256,36.8903802 39.5396729,31.9711999 C34.9893334,30.6122687 30.28068,20.6968452 38.5116095,15.7441593 Z" id="Path-3"></path>
                            <path d="M25.477094,4.93443502 C23.7398287,6.92548579 22.8680226,9.14297856 22.9411765,12.3265688 C26.0094517,11.8292899 31.8730336,10.3366349 32.2435496,1.58944001 C29.0446026,1.89350332 27.4642552,2.75657112 25.477094,4.93443502 Z" id="Path-4"></path>
                        </g>
                    </g>
                </g>
            </g>
        </g>
    </g>
</svg>