<?xml version="1.0" encoding="UTF-8"?>
<svg width="25px" height="26px" viewBox="0 0 25 26" version="1.1" xmlns="http://www.w3.org/2000/svg" xmlns:xlink="http://www.w3.org/1999/xlink">
    <!-- Generator: Sketch 45.2 (43514) - http://www.bohemiancoding.com/sketch -->
    <title>Facebook</title>
    <desc>Created with Sketch.</desc>
    <defs></defs>
    <g id="Welcome" stroke="none" stroke-width="1" fill="none" fill-rule="evenodd">
        <g id="Desktop-HD" transform="translate(-645.000000, -3035.000000)" fill-rule="nonzero" fill="#EAEAEC">
            <g id="Footer" transform="translate(-73.000000, 2892.925031)">
                <g id="Facebook" transform="translate(718.151228, 142.540278)">
                    <path d="M23.2830902,0.378787879 L1.71672816,0.378787879 C0.977727336,0.378787879 0.378787879,0.977727336 0.378787879,1.71672816 L0.378787879,23.283181 C0.378787879,24.022091 0.977727336,24.6210305 1.71663733,24.6210305 L13.3272885,24.6210305 L13.3272885,15.2332857 L10.1680055,15.2332857 L10.1680055,11.574614 L13.3272885,11.574614 L13.3272885,8.87638903 C13.3272885,5.74526362 15.2397347,4.04027536 18.0330598,4.04027536 C19.3709092,4.04027536 20.521011,4.13991694 20.8559957,4.18433329 L20.8559957,7.45661004 L18.9188434,7.45751835 C17.3996045,7.45751835 17.1054938,8.17935212 17.1054938,9.23862297 L17.1054938,11.5745232 L20.7285598,11.5745232 L20.2568745,15.2331949 L17.1056755,15.2331949 L17.1056755,24.6209396 L23.2833627,24.6209396 C24.0222727,24.6209396 24.6212121,24.0218185 24.6212121,23.2830902 L24.6212121,1.71672816 C24.6211213,0.977727336 24.0220002,0.378787879 23.2830902,0.378787879 Z" id="Shape"></path>
                </g>
            </g>
        </g>
    </g>
</svg>