<?xml version="1.0" encoding="UTF-8"?>
<svg width="44px" height="43px" viewBox="0 0 44 43" version="1.1" xmlns="http://www.w3.org/2000/svg" xmlns:xlink="http://www.w3.org/1999/xlink">
    <!-- Generator: Sketch 45.2 (43514) - http://www.bohemiancoding.com/sketch -->
    <title>Logic Pro Copy</title>
    <desc>Created with Sketch.</desc>
    <defs></defs>
    <g id="Welcome" stroke="none" stroke-width="1" fill="none" fill-rule="evenodd">
        <g id="Desktop-HD" transform="translate(-518.000000, -2138.000000)">
            <g id="Termini" transform="translate(78.000000, 1691.000000)">
                <g id="Picker" transform="translate(0.000000, 162.000000)">
                    <g id="Apple-IT-Copy-4" transform="translate(370.000000, 258.000000)">
                        <g id="Logic-Pro-Copy" transform="translate(69.897059, 26.000000)">
                            <rect id="Rectangle-5" stroke="#3B3E43" stroke-width="1" transform="translate(23.158106, 28.590585) rotate(-9.000000) translate(-23.158106, -28.590585) " x="4.14516115" y="16.7154165" width="38.0258906" height="23.7503372" rx="4"></rect>
                            <rect id="Rectangle-5-Copy" stroke="#3B3E43" stroke-width="1" transform="translate(23.158106, 28.590585) rotate(-9.000000) translate(-23.158106, -28.590585) " x="7.74790176" y="19.0002854" width="30.8204094" height="19.1805994" rx="4"></rect>
                            <rect id="Rectangle-5-Copy-2" stroke="#3B3E43" stroke-width="1" transform="translate(20.568062, 14.551354) rotate(-9.000000) translate(-20.568062, -14.551354) " x="1.81608783" y="12.7139823" width="37.5039489" height="3.6747428" rx="1.8373714"></rect>
                            <rect id="Rectangle-5-Copy-3" stroke="#3B3E43" stroke-width="1" transform="translate(19.473554, 8.242090) rotate(-16.000000) translate(-19.473554, -8.242090) " x="0.72157951" y="6.40471821" width="37.5039489" height="3.6747428" rx="1.8373714"></rect>
                            <polygon id="Rectangle-6" fill="#3B3E43" fill-rule="evenodd" transform="translate(7.217495, 16.561414) rotate(-9.000000) translate(-7.217495, -16.561414) " points="6.2130862 14.4556925 12.0871767 14.4556925 8.22190409 18.6671358 2.34781355 18.6671358"></polygon>
                            <polygon id="Rectangle-6-Copy" fill="#3B3E43" fill-rule="evenodd" transform="translate(17.539998, 15.011836) rotate(-9.000000) translate(-17.539998, -15.011836) " points="16.5355888 12.9061139 22.4096793 12.9061139 18.5444066 17.1175572 12.6703161 17.1175572"></polygon>
                            <polygon id="Rectangle-6-Copy-2" fill="#3B3E43" fill-rule="evenodd" transform="translate(28.295805, 13.279787) rotate(-9.000000) translate(-28.295805, -13.279787) " points="27.291396 11.1740654 33.1654865 11.1740654 29.3002139 15.3855087 23.4261234 15.3855087"></polygon>
                            <polygon id="Rectangle-6-Copy-3" fill="#3B3E43" fill-rule="evenodd" transform="translate(36.356129, 12.022354) rotate(-9.000000) translate(-36.356129, -12.022354) " points="37.3624176 9.91663249 39.2141577 10.4347062 39.2151132 13.8744384 33.4971449 14.1280758"></polygon>
                        </g>
                    </g>
                </g>
            </g>
        </g>
    </g>
</svg>