<?xml version="1.0" encoding="UTF-8" standalone="no"?>
<svg
   xmlns:dc="http://purl.org/dc/elements/1.1/"
   xmlns:cc="http://creativecommons.org/ns#"
   xmlns:rdf="http://www.w3.org/1999/02/22-rdf-syntax-ns#"
   xmlns:svg="http://www.w3.org/2000/svg"
   xmlns="http://www.w3.org/2000/svg"
   viewBox="0 0 1214.6667 516"
   height="516"
   width="1214.6667"
   xml:space="preserve"
   id="svg2"
   version="1.1"><metadata
     id="metadata8"><rdf:RDF><cc:Work
         rdf:about=""><dc:format>image/svg+xml</dc:format><dc:type
           rdf:resource="http://purl.org/dc/dcmitype/StillImage" /></cc:Work></rdf:RDF></metadata><defs
     id="defs6"><clipPath
       id="clipPath38"
       clipPathUnits="userSpaceOnUse"><path
         id="path36"
         d="M 0,0 H 9108.37 V 3866.63 H 0 Z" /></clipPath></defs><g
     transform="matrix(1.3333333,0,0,-1.3333333,0,516)"
     id="g10"><g
       transform="scale(0.1)"
       id="g12"><path
         id="path14"
         style="fill:#edaf1d;fill-opacity:1;fill-rule:nonzero;stroke:none"
         d="m 4459.73,1208.98 c -152.7,1.89 -272.56,48.96 -359.72,141.03 h 110.76 l 383.46,-6.99 25.73,-5.88 v -2.71 h 11.81 l 10.88,-2.48 129.43,-60.81 c -103.94,-42.67 -208.03,-63.45 -312.35,-62.16 z m 682.67,146.31 c 150.36,134.17 253.05,292.24 307.65,474.43 65.32,217.97 43.03,402.45 -66.88,553.48 -109.86,150.98 -279.57,227.95 -509.14,230.79 -141.67,1.77 -283.47,-30.88 -425.43,-97.91 -141.97,-67.02 -266.31,-160.64 -373.06,-280.78 -15.78,-17.76 -30.62,-35.83 -45,-54.05 h 176.68 c 81.51,86.15 176.73,155.26 286.13,206.89 117.6,55.51 232.34,82.6 344.13,81.21 114.59,-1.42 214.21,-31.16 298.87,-89.19 84.67,-58.05 140.93,-134.65 168.86,-229.86 27.93,-95.21 24.4,-201.26 -10.64,-318.16 -35.23,-117.56 -95.39,-224.09 -180.5,-319.55 -48.73,-54.7 -102.83,-102.37 -161.98,-143.5 l -188.28,105.99 c -20.46,5.8 -48.27,13.67 -58.47,16.64 l -69.47,1.34 c -94.89,0.23 -269.1,0.62 -360.64,0.81 l -55.22,-76.17 v 1.12 h -2.27 l 0.01,-2.2 -363.24,-0.34 8.75,-20.63 c 15.39,-34.52 34.35,-67.77 57.38,-99.61 109.65,-151.7 276.83,-228.91 501.56,-231.69 170.56,-2.12 334.45,40.63 491.67,127.94 l 859.63,8.92 93.51,151 -724.61,3.08" /><path
         id="path16"
         style="fill:#28548a;fill-opacity:1;fill-rule:nonzero;stroke:none"
         d="m 1805.37,2351.86 -527.84,-882.25 518.76,-0.35 -107.75,-180.09 -728.63,0.52 635.6,1062.32 209.86,-0.15" /><path
         id="path18"
         style="fill:#28548a;fill-opacity:1;fill-rule:nonzero;stroke:none"
         d="m 6293.03,2106.66 -370.46,-619.2 -153.28,0.11 71.81,106.22 -1.87,0.65 c -76.12,-76.61 -168.64,-114.89 -277.55,-114.83 -146.23,0.12 -177.14,70.64 -92.81,211.61 l 248.81,415.84 155.63,-0.1 -227.47,-380.2 c -31.73,-53.02 -45.1,-87.91 -39.98,-104.64 5.08,-16.75 31.75,-25.13 80.09,-25.17 99.12,-0.06 182.97,57.16 251.54,171.75 l 202.27,338.07 153.27,-0.11" /><path
         id="path20"
         style="fill:#28548a;fill-opacity:1;fill-rule:nonzero;stroke:none"
         d="m 6508.2,1608.2 c -24.24,-11.94 -64.44,-17.84 -120.7,-17.82 -58.8,0.04 -91.78,10.27 -98.93,30.64 -7.18,20.38 7.56,61.13 44.1,122.26 2.62,4.3 8.11,13.42 16.48,27.29 l 437.33,-0.29 28.26,45.34 c 70.81,118.3 98.56,197.68 83.38,238.09 -15.22,40.42 -80.61,60.69 -196.16,60.77 -120.15,0.07 -213.44,-20.64 -279.93,-62.16 -66.51,-41.52 -135.81,-122.6 -208.07,-243.32 -81.27,-135.88 -114.54,-224.81 -99.76,-266.79 14.73,-42 86.21,-63.04 214.42,-63.11 189.75,-0.15 321.03,60.55 393.75,182.09 l 13.27,24.09 -155.59,0.1 c -23.66,-39.51 -47.6,-65.24 -71.85,-77.18 z m -103.06,253.43 c 35.41,59.23 67.06,97.62 94.99,115.23 27.93,17.58 70.6,26.37 127.99,26.33 59.4,-0.06 93.66,-7.39 102.81,-22 9.13,-14.6 -0.93,-46.37 -30.18,-95.28 l -13.86,-24.48 -281.75,0.2" /><path
         id="path22"
         style="fill:#28548a;fill-opacity:1;fill-rule:nonzero;stroke:none"
         d="m 7520.19,1935.75 -151.06,0.1 c 2.1,5.24 3.69,9.14 4.72,11.74 14.96,30.01 17.28,48.68 7.1,56.12 -10.2,7.4 -43.5,11.12 -99.91,11.18 -80.65,0.03 -135.95,-25.04 -166.02,-75.24 -20.45,-34.23 -25.57,-54.55 -15.33,-61.05 10.28,-6.53 55.38,-11.73 135.3,-15.68 107.43,-5.25 170.95,-19.38 190.52,-42.35 19.56,-22.99 8.13,-69.95 -34.31,-140.89 -45.31,-75.75 -98.85,-128.2 -160.64,-157.38 -61.75,-29.2 -150.03,-43.73 -264.76,-43.66 -110.24,0.09 -177.74,13.25 -202.53,39.59 -24.8,26.34 -15.62,75.48 27.45,147.45 l 8.21,15.51 160.86,-0.11 c -6.4,-8.66 -11.12,-15.59 -14.26,-20.78 -39.42,-54.93 -11.86,-82.44 82.68,-82.51 97.49,-0.06 162.56,27.16 195.21,81.7 31.31,52.35 16.1,78.59 -45.69,78.62 -138.83,0.12 -222.91,12.68 -252.2,37.82 -29.29,25.15 -20.26,77.29 27.15,156.53 42.44,70.93 91.34,118.97 146.75,144.07 55.38,25.07 140.05,37.58 254.08,37.48 107.43,-0.07 172.61,-12.23 195.53,-36.42 22.84,-24.21 13.22,-71.47 -28.85,-141.84" /><path
         id="path24"
         style="fill:#28548a;fill-opacity:1;fill-rule:nonzero;stroke:none"
         d="m 8148.45,2105.38 -67.79,-113.33 -247.6,0.17 -185.39,-309.92 c -34.6,-57.77 -29.55,-86.7 15.14,-86.74 49.63,-0.03 95.35,34.85 137.14,104.74 l 16.32,24.71 131.05,-0.08 -19.16,-31.18 c -17.09,-28.59 -32.79,-53.05 -46.93,-73.4 -65.33,-94.87 -166.87,-142.24 -304.63,-142.13 -137.79,0.08 -170.25,61.01 -97.38,182.78 l 198.22,331.34 -82.53,0.04 67.79,113.33 82.53,-0.08 83.57,139.64 155.62,-0.11 -83.56,-139.64 247.59,-0.14" /><path
         id="path26"
         style="fill:#28548a;fill-opacity:1;fill-rule:nonzero;stroke:none"
         d="m 2147.32,1609.46 c -24.26,-11.95 -64.47,-17.85 -120.73,-17.81 -58.8,0.04 -91.76,10.25 -98.93,30.63 -7.15,20.37 7.58,61.12 44.14,122.25 2.59,4.32 8.07,13.44 16.45,27.31 l 437.34,-0.31 28.27,45.36 c 70.79,118.3 98.55,197.66 83.37,238.09 -15.22,40.4 -80.62,60.67 -196.16,60.75 -120.14,0.08 -213.45,-20.64 -279.94,-62.16 -66.48,-41.51 -135.82,-122.58 -208.05,-243.3 -81.3,-135.9 -114.56,-224.8 -99.8,-266.8 14.75,-42 86.24,-63.05 214.46,-63.11 189.75,-0.15 321.01,60.56 393.73,182.1 l 13.28,24.09 -155.6,0.11 c -23.64,-39.52 -47.59,-65.27 -71.83,-77.2 z m -103.07,253.44 c 35.43,59.21 67.06,97.62 94.99,115.21 27.91,17.58 70.58,26.39 127.98,26.35 59.4,-0.06 93.68,-7.39 102.81,-22 9.13,-14.62 -0.91,-46.38 -30.17,-95.28 l -13.87,-24.48 -281.74,0.2" /><path
         id="path28"
         style="fill:#28548a;fill-opacity:1;fill-rule:nonzero;stroke:none"
         d="m 2946.64,2016.12 c 54.39,-0.06 85.66,-7.98 93.81,-23.78 8.15,-15.85 -2.22,-47.97 -31.24,-96.47 l -60.25,-100.69 h -3.02 c 5.22,47.4 -45.11,71.17 -151.07,71.24 -159.76,0.12 -278.34,-64.59 -355.81,-194.05 -76.67,-128.19 -37.17,-192.31 118.53,-192.42 107.48,-0.07 194.75,31.13 261.84,93.7 l 3.38,-0.66 -57.71,-85.11 153.28,-0.1 242.93,406.03 c 51.6,86.25 66.19,144.69 43.8,175.34 -22.43,30.66 -91.7,46.04 -207.83,46.14 -106.63,0.07 -185.38,-12.42 -236.28,-37.37 -50.93,-24.98 -98.51,-74.52 -142.84,-148.63 l 157.87,-0.11 c 34.69,58 91.55,87 170.61,86.94 z m -71.34,-344.07 c -37.15,-62.08 -102.1,-93.06 -194.83,-93.01 -57.37,0.06 -91.11,6.43 -101.15,19.22 -10.05,12.78 -2.83,39.63 21.68,80.61 35.29,58.95 96.05,88.42 182.33,88.37 99.23,-0.08 129.88,-31.82 91.97,-95.19" /><path
         id="path30"
         style="fill:#28548a;fill-opacity:1;fill-rule:nonzero;stroke:none"
         d="m 3412.75,2106.88 155.63,-0.11 -61.61,-86.47 3.41,-0.63 c 75.48,64.8 152.71,97.16 231.7,97.1 113.15,-0.09 128.73,-68.65 46.75,-205.67 l -25.47,-43.33 -145.79,0.11 c 11.02,16.74 18.08,27.68 21.18,32.87 39.34,65.76 32.53,98.66 -20.42,98.7 -75.97,0.06 -143.13,-48.75 -201.54,-146.39 l -218.67,-365.49 -155.63,0.12 370.46,619.19" /><g
         id="g32"><g
           clip-path="url(#clipPath38)"
           id="g34"><path
             id="path40"
             style="fill:#28548a;fill-opacity:1;fill-rule:nonzero;stroke:none"
             d="m 3956.36,2106.52 151.76,-0.12 -68.39,-104.27 3.36,-0.66 c 75.4,75.31 165.67,112.97 270.82,112.89 153.11,-0.11 188.7,-68.71 106.69,-205.81 l -252.28,-421.64 -155.63,0.12 237.17,396.35 22.94,43.43 c 20.89,46.74 -3.03,70.17 -71.7,70.21 -104.57,0.06 -185.31,-47.47 -242.22,-142.59 l -219.71,-367.22 -153.27,0.11 370.46,619.2" /><path
             id="path42"
             style="fill:#28538a;fill-opacity:1;fill-rule:nonzero;stroke:none"
             d="m 54.4609,54.4609 h 8999.44 v 2968.04 H 54.4609 Z M 0,3076.97 H 9108.37 V -0.01 L 0,-0.01 Z" /></g></g><path
         id="path44"
         style="fill:#28538a;fill-opacity:1;fill-rule:nonzero;stroke:none"
         d="m 0,2995.28 h 9108.37 v 871.348 H 0 Z" /><path
         id="path46"
         style="fill:#ffffff;fill-opacity:1;fill-rule:nonzero;stroke:none"
         d="m 3435.76,3432.58 h 49.53 c 12.4,0 23.02,4.09 31.82,12.28 8.81,8.21 14.43,18.23 16.87,30.09 2.55,13.07 1.33,23.52 -3.66,31.32 -4.98,7.82 -14.29,11.72 -27.92,11.72 h -49.53 z m -6.49,-32.42 -18.28,-91.74 h -39.72 l 48.37,241.98 h 89.24 c 23.27,0 41,-7.03 53.19,-21.11 12.19,-14.07 16.12,-32.07 11.8,-54.01 -4.88,-24.04 -15.57,-42.57 -32.08,-55.59 -16.51,-13.03 -37.51,-19.53 -62.99,-19.53 h -49.53" /><path
         id="path48"
         style="fill:#ffffff;fill-opacity:1;fill-rule:nonzero;stroke:none"
         d="m 3689.48,3396.59 c -3,-18.26 -2.33,-32.7 1.99,-43.32 4.32,-10.63 12.96,-15.93 25.93,-15.93 12.07,0 22.19,5.55 30.32,16.67 8.15,11.13 13.61,25.31 16.38,42.58 l 0.5,3.49 c 2.76,17.92 1.99,32.24 -2.33,42.99 -4.32,10.72 -12.91,16.1 -25.76,16.1 -12.08,0 -22.19,-5.63 -30.34,-16.85 -8.14,-11.23 -13.54,-25.31 -16.2,-42.24 z m -39.23,3.41 c 4.43,27.8 14.73,50.02 30.91,66.64 16.18,16.62 36.34,24.93 60.5,24.93 23.16,0 40.44,-8.64 51.85,-25.93 11.41,-17.28 15.01,-39.17 10.81,-65.64 l -0.5,-3.5 c -4.55,-28.02 -14.88,-50.3 -31,-66.81 -16.12,-16.51 -36.31,-24.75 -60.58,-24.75 -23.16,0 -40.44,8.6 -51.85,25.83 -11.41,17.23 -14.96,39.14 -10.64,65.73 l 0.5,3.5" /><path
         id="path50"
         style="fill:#ffffff;fill-opacity:1;fill-rule:nonzero;stroke:none"
         d="m 4047.57,3364.1 0.99,-0.17 49.53,124.32 h 38.06 l -81.44,-179.83 h -32.41 l -10.3,119.82 -1,0.17 -58,-119.99 h -32.41 l -9.64,179.83 h 38.06 l 1.16,-122.15 1,-0.18 58,122.33 h 28.75 l 9.65,-124.15" /><path
         id="path52"
         style="fill:#ffffff;fill-opacity:1;fill-rule:nonzero;stroke:none"
         d="m 4289.98,3459.17 c -8.42,0 -16.15,-3.98 -23.19,-11.89 -7.03,-7.93 -12.21,-17.97 -15.53,-30.17 l 0.33,-0.84 h 62.49 l 0.66,4.17 c 1.77,11.85 0.72,21.27 -3.16,28.25 -3.88,6.98 -11.08,10.48 -21.6,10.48 z m -19.94,-154.23 c -23.06,0 -40.53,8.41 -52.44,25.26 -11.91,16.83 -15.77,38.16 -11.55,63.98 l 1,6.64 c 4.32,27.15 14.76,49.09 31.33,65.82 16.56,16.72 35.48,25.03 56.75,24.93 22.05,0 38.09,-7.39 48.11,-22.19 10.03,-14.79 13.11,-34.43 9.23,-58.92 l -3.82,-23.76 h -103.88 c -1.55,-15.12 0.39,-27.14 5.82,-36.03 5.42,-8.89 14.46,-13.33 27.09,-13.33 9.41,0 18.05,1.36 25.93,4.05 7.86,2.72 15.51,6.49 22.93,11.36 l 8.31,-26.5 c -7.21,-6 -16.35,-11.05 -27.42,-15.16 -11.08,-4.11 -23.55,-6.15 -37.39,-6.15" /><path
         id="path54"
         style="fill:#ffffff;fill-opacity:1;fill-rule:nonzero;stroke:none"
         d="m 4547.68,3451.35 -18.28,0.67 c -6.54,0 -12.46,-1.67 -17.78,-4.99 -5.32,-3.33 -9.92,-7.98 -13.8,-13.96 l -24.92,-124.65 h -39.72 l 35.89,179.83 h 36.4 l -2.33,-23.76 c 5.88,8.64 12.5,15.3 19.86,20.02 7.37,4.71 15.26,7.06 23.69,7.06 2.21,0 4.63,-0.2 7.22,-0.58 2.61,-0.39 4.63,-0.86 6.07,-1.42 l -12.3,-38.22" /><path
         id="path56"
         style="fill:#ffffff;fill-opacity:1;fill-rule:nonzero;stroke:none"
         d="m 4707.83,3459.17 c -8.42,0 -16.14,-3.98 -23.18,-11.89 -7.04,-7.93 -12.22,-17.97 -15.54,-30.17 l 0.33,-0.84 h 62.49 l 0.67,4.17 c 1.76,11.85 0.72,21.27 -3.16,28.25 -3.89,6.98 -11.08,10.48 -21.61,10.48 z m -19.94,-154.23 c -23.05,0 -40.53,8.41 -52.44,25.26 -11.91,16.83 -15.76,38.16 -11.55,63.98 l 1,6.64 c 4.33,27.15 14.77,49.09 31.33,65.82 16.56,16.72 35.49,25.03 56.76,24.93 22.04,0 38.08,-7.39 48.1,-22.19 10.04,-14.79 13.11,-34.43 9.23,-58.92 l -3.82,-23.76 h -103.88 c -1.55,-15.12 0.4,-27.14 5.82,-36.03 5.42,-8.89 14.47,-13.33 27.09,-13.33 9.42,0 18.06,1.36 25.93,4.05 7.86,2.72 15.51,6.49 22.93,11.36 l 8.31,-26.5 c -7.2,-6 -16.35,-11.05 -27.42,-15.16 -11.08,-4.11 -23.54,-6.15 -37.39,-6.15" /><path
         id="path58"
         style="fill:#ffffff;fill-opacity:1;fill-rule:nonzero;stroke:none"
         d="m 4901.38,3395.67 c -3.54,-17.73 -3.27,-31.79 0.83,-42.2 4.11,-10.43 12.52,-15.64 25.27,-15.64 6.65,0 12.88,1.97 18.69,5.9 5.83,3.94 11.11,9.46 15.88,16.54 l 15.79,79.62 c -2.44,5.86 -6.18,10.44 -11.22,13.71 -5.04,3.25 -11.22,4.9 -18.54,4.9 -11.63,0 -21.3,-5.36 -28.99,-16.05 -7.71,-10.68 -13.38,-25.11 -17.04,-43.29 z m -39.21,3.49 c 6.08,30.58 15.84,53.63 29.24,69.14 13.4,15.52 30.64,23.27 51.69,23.27 8.53,0 16.31,-1.83 23.35,-5.49 7.04,-3.64 12.88,-8.81 17.53,-15.45 l 19.46,97.06 h 39.71 l -51.85,-259.27 h -34.24 l 1,17.79 c -6.54,-7 -13.71,-12.29 -21.53,-15.87 -7.8,-3.61 -16.03,-5.4 -24.68,-5.4 -19.27,0 -33.76,8.72 -43.45,26.16 -9.7,17.46 -12,38.99 -6.9,64.57 l 0.67,3.49" /><path
         id="path60"
         style="fill:#ffffff;fill-opacity:1;fill-rule:nonzero;stroke:none"
         d="m 5321.9,3448.53 h 40.71 c 10.21,0 19.31,3.01 27.36,9.06 8.03,6.03 13.14,14.37 15.37,25 2.43,12.74 0.85,21.84 -4.74,27.26 -5.59,5.43 -15.1,8.14 -28.5,8.14 h -36.24 z m -5.98,-30.09 -15.46,-77.61 h 46.03 c 11.75,0 21.81,3.24 30.18,9.7 8.37,6.47 13.77,15.62 16.2,27.44 2.65,13.6 1.91,23.75 -2.24,30.43 -4.16,6.69 -12.28,10.04 -24.35,10.04 z m -61.66,-110.02 48.36,241.98 h 75.95 c 23.5,0 41.55,-5.6 54.18,-16.78 12.64,-11.19 16.85,-27.6 12.64,-49.19 -2.34,-11.65 -7.27,-21.67 -14.79,-30.09 -7.54,-8.42 -16.95,-14.68 -28.26,-18.78 12.85,-3.21 21.77,-10.14 26.76,-20.78 4.98,-10.63 6.08,-22.93 3.32,-36.89 -4.98,-24.16 -15.34,-41.78 -31.07,-52.85 -15.75,-11.08 -36.18,-16.62 -61.33,-16.62 h -85.76" /><path
         id="path62"
         style="fill:#ffffff;fill-opacity:1;fill-rule:nonzero;stroke:none"
         d="m 5593.74,3380.55 0.15,-14.8 1.01,-0.16 59.67,122.66 h 43.54 l -110.19,-207.09 c -6.98,-12.4 -15.43,-23.07 -25.34,-31.99 -9.93,-8.92 -22.3,-13.37 -37.15,-13.37 -3,0 -6.32,0.36 -9.97,1.07 -3.67,0.72 -7.09,1.47 -10.32,2.25 l 10.65,31.24 c 1.33,-0.11 3.18,-0.27 5.56,-0.5 2.39,-0.22 4.24,-0.33 5.58,-0.33 6.09,0 11.9,2.69 17.44,8.06 5.55,5.38 9.87,10.94 12.96,16.71 l 9.31,16.11 -24.92,177.84 h 43.38 l 8.64,-107.7" /><path
         id="path64"
         style="fill:#28538a;fill-opacity:1;fill-rule:nonzero;stroke:none"
         d="M 2176.86,571.211 H 2058.29 V 485.59 h 137.56 V 449.289 H 2013.06 V 720.32 h 181.49 v -36.3 h -136.26 v -76.508 h 118.57 v -36.301" /><path
         id="path66"
         style="fill:#28538a;fill-opacity:1;fill-rule:nonzero;stroke:none"
         d="M 2355.49,684.02 V 485.59 h 41.32 c 22.46,0 40.11,7.308 52.96,21.93 12.84,14.64 19.26,33.55 19.26,56.742 v 41.457 c 0,22.953 -6.42,41.722 -19.26,56.351 -12.85,14.629 -30.5,21.95 -52.96,21.95 z M 2310.26,449.289 V 720.32 h 87.85 c 34.37,0 62.33,-10.742 83.86,-32.211 21.52,-21.48 32.3,-49.07 32.3,-82.828 v -41.14 c 0,-33.879 -10.78,-61.493 -32.3,-82.84 -21.53,-21.34 -49.49,-32.012 -83.86,-32.012 h -87.85" /><path
         id="path68"
         style="fill:#28538a;fill-opacity:1;fill-rule:nonzero;stroke:none"
         d="M 2842.92,720.32 V 538.641 c 0,-30.032 -9.81,-53.082 -29.41,-69.153 -19.62,-16.078 -45.24,-24.109 -76.88,-24.109 -31.03,0 -56.15,8.07 -75.39,24.199 -19.24,16.133 -28.85,39.152 -28.85,69.063 V 720.32 h 45.23 V 538.781 c 0,-18.972 5.34,-33.242 16.01,-42.781 10.67,-9.551 25.01,-14.32 43,-14.32 18.62,0 33.44,4.769 44.49,14.32 11.04,9.539 16.56,23.809 16.56,42.781 V 720.32 h 45.24" /><path
         id="path70"
         style="fill:#28538a;fill-opacity:1;fill-rule:nonzero;stroke:none"
         d="m 3170.82,539.191 0.37,-1.113 c 0.49,-27.43 -8.41,-49.726 -26.71,-66.906 -18.31,-17.203 -43.09,-25.793 -74.37,-25.793 -31.64,0 -57.36,10.641 -77.15,31.93 -19.8,21.281 -29.69,48.492 -29.69,81.621 v 51.558 c 0,33.012 9.77,60.223 29.32,81.621 19.54,21.411 44.95,32.11 76.22,32.11 32.02,0 57.24,-8.41 75.67,-25.219 18.43,-16.82 27.39,-39.441 26.9,-67.852 l -0.38,-1.117 h -43.74 c 0,18.25 -4.93,32.449 -14.8,42.629 -9.86,10.18 -24.42,15.262 -43.65,15.262 -18.49,0 -33.16,-7.313 -44.02,-21.934 C 3013.93,651.352 3008.5,633 3008.5,610.93 v -51.879 c 0,-22.332 5.56,-40.789 16.66,-55.43 11.11,-14.633 26.09,-21.941 44.95,-21.941 18.74,0 32.95,5.011 42.63,15.019 9.68,10.031 14.52,24.192 14.52,42.492 h 43.56" /><path
         id="path72"
         style="fill:#28538a;fill-opacity:1;fill-rule:nonzero;stroke:none"
         d="m 3345.53,550.371 h 80.23 l -39.28,115.777 h -1.11 z m 93.07,-37.793 h -106.1 l -21.59,-63.289 h -45.79 l 99.58,271.031 h 42.82 l 98.46,-271.031 h -45.97 l -21.41,63.289" /><path
         id="path74"
         style="fill:#28538a;fill-opacity:1;fill-rule:nonzero;stroke:none"
         d="m 3798.9,684.02 h -81.91 V 449.289 h -45.22 V 684.02 h -81.91 v 36.3 h 209.04 v -36.3" /><path
         id="path76"
         style="fill:#28538a;fill-opacity:1;fill-rule:nonzero;stroke:none"
         d="m 3913.12,449.289 h 45.2305 V 720.32 H 3913.12 Z" /><path
         id="path78"
         style="fill:#28538a;fill-opacity:1;fill-rule:nonzero;stroke:none"
         d="m 4262.61,609.551 c 0,22.597 -6.05,41.148 -18.14,55.668 -12.1,14.511 -28.46,21.781 -49.05,21.781 -19.86,0 -35.55,-7.27 -47.09,-21.781 -11.55,-14.52 -17.32,-33.071 -17.32,-55.668 V 560.41 c 0,-22.82 5.77,-41.531 17.32,-56.121 11.54,-14.578 27.29,-21.859 47.28,-21.859 20.72,0 37.06,7.25 49.05,21.769 11.97,14.52 17.95,33.262 17.95,56.211 z m 45.05,-49.141 c 0,-33.129 -10.4,-60.582 -31.18,-82.359 -20.78,-21.781 -47.74,-32.672 -80.87,-32.672 -32.52,0 -58.92,10.891 -79.21,32.672 -20.29,21.777 -30.43,49.23 -30.43,82.359 v 48.77 c 0,33.019 10.14,60.429 30.43,82.281 20.29,21.84 46.63,32.758 79.02,32.758 33.13,0 60.12,-10.918 80.97,-32.758 20.85,-21.852 31.27,-49.262 31.27,-82.281 v -48.77" /><path
         id="path80"
         style="fill:#28538a;fill-opacity:1;fill-rule:nonzero;stroke:none"
         d="m 4644.5,449.289 h -45.05 l -120.24,197.871 -1.12,-0.371 v -197.5 h -45.24 V 720.32 h 45.24 l 120.25,-197.691 1.11,0.371 v 197.32 h 45.05 V 449.289" /><path
         id="path82"
         style="fill:#28538a;fill-opacity:1;fill-rule:nonzero;stroke:none"
         d="m 4996.53,588.328 h 60.68 c 16.75,0 29.35,4.481 37.79,13.41 8.44,8.942 12.65,20.293 12.65,34.063 0,13.769 -4.21,25.25 -12.65,34.437 -8.44,9.192 -21.04,13.782 -37.79,13.782 h -60.68 z m 0,-36.277 V 449.289 H 4951.3 V 720.32 h 105.91 c 29.91,0 53.33,-7.73 70.27,-23.191 16.94,-15.449 25.41,-35.758 25.41,-60.949 0,-25.43 -8.47,-45.821 -25.41,-61.149 -16.94,-15.332 -40.36,-22.98 -70.27,-22.98 h -60.68" /><path
         id="path84"
         style="fill:#28538a;fill-opacity:1;fill-rule:nonzero;stroke:none"
         d="m 5295.4,550.371 h 80.22 l -39.27,115.777 h -1.12 z m 93.06,-37.793 h -106.1 l -21.59,-63.289 h -45.79 l 99.59,271.031 h 42.81 l 98.47,-271.031 h -45.98 l -21.41,63.289" /><path
         id="path86"
         style="fill:#28538a;fill-opacity:1;fill-rule:nonzero;stroke:none"
         d="m 5608.79,598.02 h 52.49 c 18.12,0 31.33,3.468 39.65,10.421 8.31,6.95 12.47,17.571 12.47,31.829 0,13.66 -4.1,24.359 -12.29,32.109 -8.18,7.75 -20.65,11.641 -37.41,11.641 h -54.91 z m 0,-36.301 v -112.43 h -45.24 V 720.32 h 100.15 c 30.27,0 53.68,-6.832 70.17,-20.48 16.51,-13.649 24.76,-33.141 24.76,-58.449 0,-14.032 -3.62,-26.082 -10.89,-36.211 -7.25,-10.121 -17.84,-18.211 -31.74,-24.289 15.27,-4.84 26.25,-12.75 32.95,-23.731 6.7,-10.98 10.05,-24.48 10.05,-40.488 v -22.524 c 0,-7.937 1.01,-15.699 2.98,-23.269 1.98,-7.57 5.33,-13.34 10.06,-17.309 v -4.281 h -46.54 c -4.96,4.09 -8.17,10.551 -9.58,19.359 -1.43,8.813 -2.14,17.43 -2.14,25.883 v 21.77 c 0,13.898 -3.98,24.937 -11.92,33.14 -7.94,8.18 -18.86,12.278 -32.76,12.278 h -60.31" /><path
         id="path88"
         style="fill:#28538a;fill-opacity:1;fill-rule:nonzero;stroke:none"
         d="m 6069.78,684.02 h -81.9 V 449.289 h -45.24 V 684.02 h -81.89 v 36.3 h 209.03 v -36.3" /><path
         id="path90"
         style="fill:#28538a;fill-opacity:1;fill-rule:nonzero;stroke:none"
         d="M 6393.04,449.289 H 6348 l -120.25,197.871 -1.12,-0.371 v -197.5 H 6181.4 V 720.32 h 45.23 L 6346.88,522.629 6348,523 v 197.32 h 45.04 V 449.289" /><path
         id="path92"
         style="fill:#28538a;fill-opacity:1;fill-rule:nonzero;stroke:none"
         d="M 6692.47,571.211 H 6573.89 V 485.59 h 137.56 V 449.289 H 6528.66 V 720.32 h 181.48 v -36.3 h -136.25 v -76.508 h 118.58 v -36.301" /><path
         id="path94"
         style="fill:#28538a;fill-opacity:1;fill-rule:nonzero;stroke:none"
         d="m 6871.08,598.02 h 52.49 c 18.13,0 31.34,3.468 39.65,10.421 8.31,6.95 12.47,17.571 12.47,31.829 0,13.66 -4.09,24.359 -12.28,32.109 -8.2,7.75 -20.67,11.641 -37.42,11.641 h -54.91 z m 0,-36.301 v -112.43 h -45.23 V 720.32 h 100.14 c 30.28,0 53.68,-6.832 70.18,-20.48 16.49,-13.649 24.76,-33.141 24.76,-58.449 0,-14.032 -3.64,-26.082 -10.89,-36.211 -7.27,-10.121 -17.85,-18.211 -31.74,-24.289 15.26,-4.84 26.24,-12.75 32.95,-23.731 6.7,-10.98 10.05,-24.48 10.05,-40.488 v -22.524 c 0,-7.937 0.99,-15.699 2.97,-23.269 1.99,-7.57 5.34,-13.34 10.05,-17.309 v -4.281 h -46.53 c -4.96,4.09 -8.16,10.551 -9.59,19.359 -1.42,8.813 -2.14,17.43 -2.14,25.883 v 21.77 c 0,13.898 -3.97,24.937 -11.91,33.14 -7.94,8.18 -18.87,12.278 -32.77,12.278 h -60.3" /></g></g></svg>