<?xml version="1.0" encoding="UTF-8"?>
<svg width="25px" height="20px" viewBox="0 0 25 20" version="1.1" xmlns="http://www.w3.org/2000/svg" xmlns:xlink="http://www.w3.org/1999/xlink">
    <!-- Generator: Sketch 45.2 (43514) - http://www.bohemiancoding.com/sketch -->
    <title>Twitter</title>
    <desc>Created with Sketch.</desc>
    <defs></defs>
    <g id="Welcome" stroke="none" stroke-width="1" fill="none" fill-rule="evenodd">
        <g id="Desktop-HD" transform="translate(-716.000000, -3038.000000)" fill-rule="nonzero" fill="#EAEAEC">
            <g id="Footer" transform="translate(-73.000000, 2892.925031)">
                <g id="Twitter" transform="translate(789.151228, 142.540278)">
                    <path d="M24.6212121,4.98268794 C23.7259709,5.38155781 22.7686832,5.64747105 21.7670766,5.76270013 C22.7952745,5.15109966 23.5841505,4.17608443 23.956429,3.01492992 C22.9902775,3.58221151 21.9266246,3.99880893 20.7920614,4.2204033 C19.8879563,3.25425184 18.5938452,2.65151515 17.1667775,2.65151515 C14.4190073,2.65151515 12.1941998,4.87632264 12.1941998,7.62409285 C12.1941998,8.01409894 12.2385186,8.39524126 12.3271564,8.75865603 C8.18777353,8.54592543 4.52703451,6.56930364 2.07176888,3.56448396 C1.64630768,4.30017728 1.39812199,5.15109966 1.39812199,6.06406847 C1.39812199,7.79250457 2.2756357,9.30821007 3.6140657,10.2034513 C2.79859842,10.17686 2.03631378,9.95526564 1.36266689,9.58298709 C1.36266689,9.60071464 1.36266689,9.62730597 1.36266689,9.64503352 C1.36266689,12.0559803 3.07337544,14.0591934 5.35136558,14.5201097 C4.93476816,14.6353388 4.49157941,14.6973852 4.0395269,14.6973852 C3.720431,14.6973852 3.41019888,14.6619301 3.09996676,14.6087474 C3.72929478,16.5853692 5.57295995,18.0213008 7.74458479,18.0656196 C6.04274001,19.3951859 3.8977065,20.1929256 1.56653371,20.1929256 C1.16766384,20.1929256 0.768793973,20.1663343 0.378787879,20.1220154 C2.57700404,21.5313556 5.19181763,22.3556867 8.00163426,22.3556867 C17.1490499,22.3556867 22.1482189,14.7771592 22.1482189,8.20910199 C22.1482189,7.99637139 22.1393552,7.77477702 22.1304914,7.56204642 C23.1143704,6.85294444 23.956429,5.97543072 24.6212121,4.98268794 Z" id="Shape"></path>
                </g>
            </g>
        </g>
    </g>
</svg>