<?xml version="1.0" encoding="UTF-8"?>
<svg width="64px" height="46px" viewBox="0 0 64 46" version="1.1" xmlns="http://www.w3.org/2000/svg" xmlns:xlink="http://www.w3.org/1999/xlink">
    <!-- Generator: Sketch 45.2 (43514) - http://www.bohemiancoding.com/sketch -->
    <title>UpWork</title>
    <desc>Created with Sketch.</desc>
    <defs></defs>
    <g id="SWIFT" stroke="none" stroke-width="1" fill="none" fill-rule="evenodd">
        <g id="Desktop-HD" transform="translate(-814.000000, -1777.000000)" stroke="#FFFFFF">
            <g id="Content" transform="translate(1.000000, 890.863281)">
                <g id="Bonus-Copy-5" transform="translate(745.000000, 874.571564)">
                    <g id="UpWork" transform="translate(68.441176, 12.000000)">
                        <path d="M0.542334967,0.924219258 L7.46956828,0.924219258 C7.46956828,9.68882623 7.46956828,16.259686 7.46956828,20.6367984 C7.84383961,23.2055058 9.60093163,25.4753486 14.0067637,26.0877222 C18.0086748,25.6904112 20.9206364,22.8480912 20.8125149,20.6367984 C20.8125149,14.6614711 20.8125149,8.0704392 20.8125149,0.863702655 C24.0818124,0.904047057 26.4050908,0.904047057 27.78235,0.863702655 C30.0410886,7.34616696 32.4309308,12.4320742 34.9518766,16.1214245 C37.1531795,8.91049325 41.6750022,5.13001876 48.5173447,4.78000106 C54.642025,4.4313211 61.3236017,9.40821402 62.5415027,15.5130642 C63.2487777,21.6261769 62.0535751,29.8845761 52.4892744,32.5988542 C47.8034596,33.9286539 42.7588138,32.8004606 39.277916,30.4040826 C38.1509031,35.3214851 37.0326249,40.1515406 35.9230813,44.894249 L28.7466939,44.894249 C29.8973151,39.7377831 31.316351,32.9993915 33.0038015,24.6790741 C31.0550968,22.5396223 29.314613,19.7976334 27.78235,16.4531072 C27.78235,18.0011053 27.78235,19.4913577 27.78235,20.9238643 C27.2802094,27.5034525 20.8974942,33.1533398 14.0067637,33.1264775 C8.19322779,33.1038145 1.05744645,28.5310787 0.542334967,21.2125768 C0.542334967,18.6091628 0.542334967,11.8463769 0.542334967,0.924219258 Z" id="Path-9"></path>
                        <path d="M40.7920888,22.7836432 C41.2953967,16.0303003 43.9724655,11.9004376 48.570225,11.7358947 C51.2935898,11.6384319 56.1139407,14.5522467 55.8117671,18.9455669 C55.6050903,21.950454 54.4123258,25.3577842 48.570225,26.0176085 C46.6919343,26.2319727 44.8312994,25.9847944 40.7920888,22.7836432 Z" id="Path-10"></path>
                    </g>
                </g>
            </g>
        </g>
    </g>
</svg>