<?xml version="1.0" encoding="UTF-8"?>
<svg width="128px" height="42px" viewBox="0 0 128 42" version="1.1" xmlns="http://www.w3.org/2000/svg" xmlns:xlink="http://www.w3.org/1999/xlink">
    <!-- Generator: Sketch 46 (44423) - http://www.bohemiancoding.com/sketch -->
    <title>AVID</title>
    <desc>Created with Sketch.</desc>
    <defs></defs>
    <g id="Audio-VIdeo" stroke="none" stroke-width="1" fill="none" fill-rule="evenodd">
        <g id="Desktop-HD" transform="translate(-994.000000, -1617.000000)" stroke="#FFFFFF">
            <g id="Content" transform="translate(-7.000000, 869.863281)">
                <g id="Bonus-Copy-2" transform="translate(965.000000, 725.571564)">
                    <g id="AVID" transform="translate(35.000000, 22.000000)">
                        <path d="M21.1441715,1.94312524 C21.9262361,1.94312524 22.5430085,2.28976129 22.9944888,2.9830334 L40.7514083,35.3338692 C41.1552413,36.2650726 41.1552413,37.1425332 40.7514083,37.966251 C40.3475752,38.7899688 39.629616,39.3165265 38.5975305,39.5459239 L3.66292521,39.5459239 C2.74007733,39.2284113 2.11487267,38.7018537 1.78731126,37.966251 C1.45974984,37.2306484 1.45974984,36.3531878 1.78731126,35.3338692 L19.2109542,2.9830334 C19.7177012,2.28976129 20.3621069,1.94312524 21.1441715,1.94312524 Z" id="Path-14"></path>
                        <path d="M51.1949877,1.94312524 C51.9770523,1.94312524 52.5938247,2.28976129 53.045305,2.9830334 L70.8022244,35.3338692 C71.2060575,36.2650726 71.2060575,37.1425332 70.8022244,37.966251 C70.3983914,38.7899688 69.6804322,39.3165265 68.6483467,39.5459239 L33.7137414,39.5459239 C32.7908935,39.2284113 32.1656889,38.7018537 31.8381274,37.966251 C31.510566,37.2306484 31.510566,36.3531878 31.8381274,35.3338692 L49.2617704,2.9830334 C49.7685174,2.28976129 50.4129231,1.94312524 51.1949877,1.94312524 Z" id="Path-14-Copy" transform="translate(51.348778, 20.744525) rotate(180.000000) translate(-51.348778, -20.744525) "></path>
                        <path d="M111.405145,4.36625258 C112.187209,4.36625258 112.803982,4.66821412 113.255462,5.27213721 L131.012382,33.4535921 C131.416215,34.2647819 131.416215,35.0291553 131.012382,35.7467122 C130.608549,36.4642691 129.890589,36.9229639 128.858504,37.1227966 L93.9238986,37.1227966 C93.0010507,36.8462051 92.375846,36.3875103 92.0482846,35.7467122 C91.7207232,35.1059141 91.7207232,34.3415408 92.0482846,33.4535921 L109.471928,5.27213721 C109.978675,4.66821412 110.62308,4.36625258 111.405145,4.36625258 Z" id="Path-14-Copy-2" transform="translate(111.558935, 20.744525) rotate(90.000000) translate(-111.558935, -20.744525) "></path>
                        <rect id="Rectangle" x="76.1289308" y="2.13522013" width="12.490566" height="37.0188679" rx="6.24528302"></rect>
                    </g>
                </g>
            </g>
        </g>
    </g>
</svg>