<?xml version="1.0" encoding="UTF-8"?>
<svg width="49px" height="48px" viewBox="0 0 49 48" version="1.1" xmlns="http://www.w3.org/2000/svg" xmlns:xlink="http://www.w3.org/1999/xlink">
    <!-- Generator: Sketch 46 (44423) - http://www.bohemiancoding.com/sketch -->
    <title>Logic Pro Copy</title>
    <desc>Created with Sketch.</desc>
    <defs></defs>
    <g id="Audio-VIdeo" stroke="none" stroke-width="1" fill="none" fill-rule="evenodd">
        <g id="Desktop-HD" transform="translate(-1031.000000, -1776.000000)">
            <g id="Content" transform="translate(-7.000000, 869.863281)">
                <g id="Bonus-Copy-3" transform="translate(964.000000, 895.571564)">
                    <g id="Logic-Pro-Copy" transform="translate(73.774510, 10.000000)">
                        <rect id="Rectangle-5" stroke="#FFFFFF" transform="translate(25.843944, 31.767317) rotate(-9.000000) translate(-25.843944, -31.767317) " x="4.56792077" y="18.5171294" width="42.5520473" height="26.5003747" rx="4"></rect>
                        <rect id="Rectangle-5-Copy" stroke="#FFFFFF" transform="translate(25.843944, 31.767317) rotate(-9.000000) translate(-25.843944, -31.767317) " x="8.58850113" y="21.0558727" width="34.5108865" height="21.4228882" rx="4"></rect>
                        <rect id="Rectangle-5-Copy-2" stroke="#FFFFFF" transform="translate(22.953511, 16.168171) rotate(-9.000000) translate(-22.953511, -16.168171) " x="1.96872547" y="14.0710914" width="41.9695717" height="4.19415866" rx="2.09707933"></rect>
                        <rect id="Rectangle-5-Copy-3" stroke="#FFFFFF" transform="translate(21.732064, 9.157877) rotate(-16.000000) translate(-21.732064, -9.157877) " x="0.747277926" y="7.06079801" width="41.9695717" height="4.19415866" rx="2.09707933"></rect>
                        <polygon id="Rectangle-6" fill="#FFFFFF" transform="translate(8.054568, 18.401571) rotate(-9.000000) translate(-8.054568, -18.401571) " points="6.93366941 16.0618805 13.489027 16.0618805 9.1754666 20.741262 2.62010899 20.741262"></polygon>
                        <polygon id="Rectangle-6-Copy" fill="#FFFFFF" transform="translate(19.574257, 16.679817) rotate(-9.000000) translate(-19.574257, -16.679817) " points="18.4533583 14.3401266 25.0087159 14.3401266 20.6951555 19.0195081 14.1397979 19.0195081"></polygon>
                        <polygon id="Rectangle-6-Copy-2" fill="#FFFFFF" transform="translate(31.577504, 14.755319) rotate(-9.000000) translate(-31.577504, -14.755319) " points="30.4566059 12.4156282 37.0119635 12.4156282 32.6984031 17.0950097 26.1430455 17.0950097"></polygon>
                        <polygon id="Rectangle-6-Copy-3" fill="#FFFFFF" transform="translate(40.572651, 13.358171) rotate(-9.000000) translate(-40.572651, -13.358171) " points="41.6956475 11.0184805 43.7621493 11.594118 43.7632156 15.4160426 37.3820871 15.697862"></polygon>
                    </g>
                </g>
            </g>
        </g>
    </g>
</svg>