<?xml version="1.0" encoding="UTF-8"?>
<svg width="44px" height="49px" viewBox="0 0 44 49" version="1.1" xmlns="http://www.w3.org/2000/svg" xmlns:xlink="http://www.w3.org/1999/xlink">
    <!-- Generator: Sketch 46 (44423) - http://www.bohemiancoding.com/sketch -->
    <title>Group</title>
    <desc>Created with Sketch.</desc>
    <defs></defs>
    <g id="Apple-IT" stroke="none" stroke-width="1" fill="none" fill-rule="evenodd">
        <g id="Desktop-HD" transform="translate(-1035.000000, -1776.000000)" stroke="#FFFFFF">
            <g id="Content" transform="translate(-7.000000, 827.863281)">
                <g id="Bonus-Copy-3" transform="translate(964.000000, 937.571564)">
                    <g id="Group" transform="translate(77.450980, 10.000000)">
                        <ellipse id="Oval" cx="23.2776681" cy="9.45924813" rx="8.41541395" ry="7.83686748"></ellipse>
                        <path d="M10.8046245,16.8059195 C12.5213638,16.8059195 14.0862858,16.2005991 15.2667044,15.2066474 C13.2021164,12.5761662 13.0526097,11.81967 12.9019588,10.9458948 C12.7513079,10.0721197 12.3029785,8.7071083 13.9200813,5.13005318 C12.9905882,4.67067343 11.9302398,4.4104439 10.8046245,4.4104439 C7.12901615,4.4104439 4.14934683,7.18526564 4.14934683,10.6081817 C4.14934683,14.0310978 7.12901615,16.8059195 10.8046245,16.8059195 Z" id="Oval-Copy"></path>
                        <path d="M37.8581637,16.8059195 C39.574903,16.8059195 41.139825,16.2005991 42.3202436,15.2066474 C40.2556555,12.5761662 40.1061488,11.81967 39.955498,10.9458948 C39.8048471,10.0721197 39.3565177,8.7071083 40.9736205,5.13005318 C40.0441273,4.67067343 38.9837789,4.4104439 37.8581637,4.4104439 C34.1825553,4.4104439 31.202886,7.18526564 31.202886,10.6081817 C31.202886,14.0310978 34.1825553,16.8059195 37.8581637,16.8059195 Z" id="Oval-Copy-2" transform="translate(36.761565, 10.608182) scale(-1, 1) translate(-36.761565, -10.608182) "></path>
                        <path d="M11.5262684,20.5692444 C19.0921442,18.2953269 27.9907017,18.534376 34.9034714,20.5692444 C34.2230369,25.3217421 33.5940643,32.5914279 33.2653815,33.0623979 C32.9366986,33.533368 28.5711408,35.9119306 28.2178141,36.3652755 C27.8644874,36.8186204 28.2431304,44.971822 28.2178141,47.3118738 C24.922645,48.9567167 22.0484812,48.9182503 18.3440789,47.3118738 C18.3346351,44.7093586 18.4695462,36.8130456 18.3440789,36.3652755 C18.2186117,35.9175055 13.34482,33.4915567 13.1544421,33.0623979 C12.9640641,32.6332392 11.9637095,23.9340533 11.5262684,20.5692444 Z" id="Path-17"></path>
                        <path d="M1.08544298,20.4030578 C3.7713426,19.1956723 7.84105525,19.0449058 9.233558,18.8919294 C10.0260642,23.246355 11.0948119,32.1930194 11.2173403,33.0478947 C10.9686621,33.4704621 14.321681,34.9321074 14.4817783,35.2789439 C14.6418756,35.6257805 14.357164,42.2977256 14.33801,44.3972849 C11.8449176,45.8730834 9.0464451,45.8385703 6.24373103,44.3972849 C6.23658593,42.0622362 6.33865833,34.9774457 6.24373103,34.575694 C6.14880373,34.1739424 2.867259,31.5831119 2.72322093,31.1980588 C2.57918286,30.8130057 1.41640661,23.4220574 1.08544298,20.4030578 Z" id="Path-17-Copy"></path>
                        <path d="M30.1647299,20.9321055 C32.8506295,19.7247199 35.1968577,19.3212644 36.5893604,19.168288 C37.3818666,23.5227136 38.4195125,32.2616566 38.5420409,33.116532 C38.2933627,33.5390993 43.1761182,36.2031619 43.3362155,36.5499985 C43.4963128,36.896835 43.3553695,42.2635286 43.3362155,44.3630878 C40.8431231,45.8388864 38.1048862,45.8043732 35.3021722,44.3630878 C35.2950271,42.0280392 35.1420818,35.0510201 35.0471545,34.6492684 C34.9522272,34.2475168 31.4799554,31.971479 31.3359173,31.5864259 C31.1918792,31.2013728 30.4956935,23.9511051 30.1647299,20.9321055 Z" id="Path-17-Copy-2" transform="translate(36.788275, 32.312660) scale(-1, 1) translate(-36.788275, -32.312660) "></path>
                    </g>
                </g>
            </g>
        </g>
    </g>
</svg>