<?xml version="1.0" encoding="UTF-8"?>
<svg width="66px" height="49px" viewBox="0 0 66 49" version="1.1" xmlns="http://www.w3.org/2000/svg" xmlns:xlink="http://www.w3.org/1999/xlink">
    <!-- Generator: Sketch 46 (44423) - http://www.bohemiancoding.com/sketch -->
    <title>Mail</title>
    <desc>Created with Sketch.</desc>
    <defs></defs>
    <g id="Apple-IT" stroke="none" stroke-width="1" fill="none" fill-rule="evenodd">
        <g id="Desktop-HD" transform="translate(-1025.000000, -1606.000000)" stroke="#FFFFFF">
            <g id="Content" transform="translate(-7.000000, 827.863281)">
                <g id="Bonus-Copy-2" transform="translate(965.000000, 767.571564)">
                    <g id="Mail" transform="translate(66.666667, 10.000000)">
                        <path d="M17.777059,37.1109048 C17.7440081,43.9409009 17.7440081,47.5687158 17.777059,47.9943496 C17.8266354,48.6328003 17.777059,48.9115305 18.6755044,48.6812039 C19.274468,48.5276529 21.9561679,46.8117202 26.7206042,43.5334057" id="Path-16"></path>
                        <path d="M1.36725799,24.2473836 C4.34627152,22.4411668 64.5143187,0.243180574 64.8385504,1.2299931 C65.0520707,1.87985085 55.8834565,17.7702938 36.9228616,48.0817061 C36.6889456,48.4556567 36.2700457,49.2042514 34.8120616,48.7652279 C33.8400722,48.4725455 28.1475866,44.5987063 17.7346049,37.1437104 L53.5417352,10.2428338 L11.0137387,32.3802341 C4.83604036,28.0406099 1.6205468,25.7408708 1.36725799,25.4810169 C0.987324779,25.091236 0.99570789,24.7772623 1.36725799,24.2473836 Z" id="Path-15"></path>
                    </g>
                </g>
            </g>
        </g>
    </g>
</svg>