<?xml version="1.0" encoding="UTF-8"?>
<svg width="35px" height="52px" viewBox="0 0 35 52" version="1.1" xmlns="http://www.w3.org/2000/svg" xmlns:xlink="http://www.w3.org/1999/xlink">
    <!-- Generator: Sketch 45.2 (43514) - http://www.bohemiancoding.com/sketch -->
    <title>Serbia</title>
    <desc>Created with Sketch.</desc>
    <defs></defs>
    <g id="SWIFT" stroke="none" stroke-width="1" fill="none" fill-rule="evenodd">
        <g id="Desktop-HD" transform="translate(-829.000000, -1608.000000)" stroke="#FFFFFF">
            <g id="Content" transform="translate(1.000000, 890.863281)">
                <g id="Bonus-Copy-4" transform="translate(746.000000, 704.571564)">
                    <g id="Serbia" transform="translate(82.000000, 13.000000)">
                        <path d="M30.9696917,32.3029181 C31.1665697,32.499796 31.3634476,32.631048 31.5603256,32.827926 L32.1509596,32.827926 C32.2822115,33.156056 32.6103415,33.3529339 32.8728455,33.6154379 C33.0697234,34.0091939 33.2666014,34.4685758 33.5947314,34.7967058 C33.7916093,34.9279577 34.0541133,34.8623318 34.2509913,34.9935837 C34.3822433,35.6498437 33.7259834,36.0435996 33.5291054,36.5718888 C33.2666014,36.8343928 33.0697234,37.2281488 32.7415935,37.4906527 C32.5447155,37.8844087 32.3478375,38.2781646 32.0197076,38.5406686 C31.7482243,38.4828508 31.4840729,38.3948004 31.2321957,38.2781646 L30.9040657,38.2781646 C30.8384397,38.3437906 30.7728137,38.3437906 30.7728137,38.4750426 C30.3134318,38.5406686 30.0509278,38.9344245 29.7884238,39.1969285 C29.7227979,39.5906845 29.9853018,39.9188144 30.1165538,40.2469444 C29.7884238,40.7063263 29.7227979,41.2969603 29.5915459,41.8252495 C29.7884238,42.3502574 30.3790578,42.4815094 30.7071877,42.9408913 C30.6315706,43.2194463 30.5875428,43.5056266 30.5759357,43.7940292 C30.3790578,43.9252812 30.1821798,43.9909072 30.0509278,44.1221592 C29.9853018,44.3190372 29.9196758,44.5815411 29.7227979,44.7127931 C29.4602939,44.7784191 29.1977899,44.7127931 28.935286,44.9096711 L28.935286,44.7784191 C28.672782,44.5159151 28.2134,44.8440451 27.8196441,44.8440451 C27.6307004,45.0429368 27.3718451,45.1605983 27.0977582,45.1721751 C27.0321322,45.0409231 26.9008802,44.9752971 26.7696282,44.9096711 C26.5727502,44.9096711 26.3102463,44.9752971 26.1789943,45.1721751 C25.9164903,45.2378011 25.7196124,45.369053 25.4571084,45.3034271 C25.3258564,45.1065491 25.2602304,44.8440451 24.9977264,44.7784191 L24.8664745,44.7784191 C24.4070925,44.9096711 24.5383445,45.369053 24.4070925,45.697183 C23.7508326,45.631557 23.0256654,45.565931 22.3674367,45.565931 C22.3019511,45.5720018 22.2360443,45.5720018 22.1705587,45.565931 C21.9714155,45.5553195 21.7718815,45.5774899 21.5799248,45.631557 C21.2517948,45.894061 20.7924129,45.894061 20.5299089,46.2221909 C20.3986569,46.4846949 20.4642829,46.8128249 20.3330309,47.0753288 C19.676771,47.2722068 19.3486411,46.5503209 18.8859778,46.2221909 C18.6340107,46.1658415 18.3733151,46.2701197 18.2297179,46.4846949 C17.573458,46.8128249 16.8482908,47.2065808 16.1907183,47.5347108 C15.9938404,47.6003368 15.8625884,47.7972147 15.7313364,47.9284667 C15.4688324,48.4534747 15.7969624,49.1097346 15.6000844,49.6386801 C15.4032064,49.901184 15.1407025,50.098062 14.9438245,50.360566 C14.9438245,50.426192 14.8040411,50.4091292 14.8040411,50.4747552 C14.8040411,50.4747552 14.48313,50.6893522 14.2855958,50.557444 C14.2855958,50.163688 14.4168478,49.835558 14.4824738,49.5074281 C14.7449777,49.3761761 14.6137258,49.1136721 14.7449777,48.9167942 C14.5480998,47.8667783 14.1543438,46.8115123 13.6949619,45.8251537 C13.4324579,45.4313977 13.0387019,45.1032678 12.644946,44.8407638 C12.5103146,44.851134 12.3751807,44.8286117 12.25119,44.7751378 C12.1199381,44.9063898 11.9230601,44.7751378 11.7261821,44.8407638 C11.5949301,44.6438858 11.6605561,44.4470079 11.4636781,44.3157559 C11.3980522,44.1188779 11.5949301,43.9219999 11.5293041,43.7251219 C11.2602514,43.2462751 10.9292725,42.8049699 10.5449143,42.4126021 C10.2824103,42.4126021 9.95428033,42.2813501 10.0199063,42.2813501 C10.0855323,42.2813501 10.0855323,42.2157241 10.0855323,42.1500981 C10.0199063,42.0844722 10.0199063,41.8875942 9.88865434,41.9532202 L9.95428033,41.8875942 C9.82302835,41.5594642 9.75740236,41.1657083 9.49489839,40.8375783 C9.4292724,40.8375783 9.36364641,40.9032043 9.4292724,40.8375783 C9.16676843,40.6407003 9.03551645,40.3125704 8.96989045,39.9844404 C9.03551645,39.8531884 9.23239442,39.8531884 9.29802041,39.7219364 L9.4292724,39.7219364 L9.56052438,39.5906845 L9.69177637,39.5906845 C9.8346027,39.4594205 10.0228649,39.3888222 10.2167843,39.3938065 C10.5449143,39.6563105 10.9386702,40.0500664 11.3980522,39.7875624 C11.3874007,39.6100114 11.4096495,39.4320206 11.4636781,39.2625545 C11.7918081,39.1313025 12.1199381,39.1313025 12.382442,38.9344245 C12.0543121,38.6719206 12.0543121,38.2781646 11.7261821,38.0156607 C11.3324262,37.8187827 10.8730442,37.7531567 10.4136623,37.6875307 C10.2167843,37.5562787 10.0199063,37.4906527 9.88865434,37.2937747 C9.88865434,37.1625228 9.88865434,36.9656448 9.82302835,36.8343928 C9.4292724,36.7031408 9.23239442,36.3093849 9.16676843,35.9156289 L9.23239442,35.8500029 C9.17999184,35.7996087 9.10767507,35.7755031 9.03551645,35.7843769 C8.89269011,35.9156409 8.70442795,35.9862392 8.51050851,35.9812549 C8.24800454,35.7843769 7.85424859,35.587499 7.59174463,35.8500029 C7.59456175,35.7977373 7.56962142,35.7478566 7.52611863,35.7187509 L7.39486665,35.7187509 L7.26361467,35.587499 L7.19798868,35.587499 C7.0011107,35.390621 6.73860673,35.324995 6.60735475,35.062491 L6.60735475,34.931239 C6.36141618,34.6320038 6.09847843,34.3471546 5.81984285,34.0781011 C5.75421686,33.8812232 5.62296487,33.6843452 5.49171289,33.4874672 C5.16358293,33.2905892 4.90107896,32.9624593 4.63857499,32.6999553 C4.37607103,32.7655813 4.24481904,32.5687033 4.11356706,32.3718254 C4.08947346,32.3522869 4.06747957,32.330293 4.04794107,32.3061994 C3.71981111,31.9780694 3.19480317,31.9124434 3.06355119,31.4530615 L3.12917718,31.3874355 L3.06355119,31.3218095 C3.12917718,31.3218095 3.12917718,31.2561835 3.12917718,31.1905575 L3.06355119,31.1249315 L2.88176719,31.1249315 C3.28733582,31.1341192 3.53802711,30.7311756 3.6036531,30.3374196 C3.73490509,30.3374196 3.86615707,30.2717936 3.99740905,30.4030456 C4.19428703,30.4030456 4.32553901,30.2717936 4.52241699,30.2717936 L4.85054695,30.5999236 L4.98179893,30.5999236 C5.11305091,30.4686716 5.17867691,30.3374196 5.30992889,30.2061676 C5.37555488,29.8780377 5.11305091,29.5499077 5.30992889,29.2217778 C5.30992889,28.9592738 5.50680687,28.6967698 5.44118087,28.4342659 C5.2697311,28.1497692 5.01879587,27.9216463 4.71929496,27.7780059 C4.391165,27.449876 4.456791,26.924868 4.12866104,26.5311121 C3.86615707,26.2686081 3.53802711,26.0061042 3.40677513,25.6123482 C3.93178306,25.2185923 4.52241699,25.7436002 5.05136248,25.9404782 C5.18261447,26.0717301 5.37949244,26.0717301 5.57637042,26.0717301 C5.97012637,25.8092262 6.36388232,25.4154702 6.29825633,24.9560883 C6.10137835,24.6935843 5.77324839,24.6279583 5.57637042,24.3654544 C5.51074443,24.1685764 5.37949244,24.0373244 5.24824046,23.9060724 C5.11698847,23.9060724 4.98573649,23.7748204 4.85448451,23.7748204 C4.80727965,23.6019414 4.71695695,23.4438767 4.59198054,23.3154385 C4.46072856,23.3154385 4.46072856,23.2498125 4.39510256,23.1841865 C4.39510256,22.8560565 4.32947657,22.5279266 4.1325986,22.3310486 C3.87009463,22.1997966 3.67321665,22.2654226 3.41071269,22.2654226 C3.41071269,22.3310486 3.34508669,22.3310486 3.2794607,22.3310486 C3.08258273,22.2654226 2.88570475,22.1997966 2.75445277,22.0029187 C2.75943361,21.7483862 2.69109013,21.4977935 2.55757479,21.2810327 C2.63724642,20.943737 2.74706463,20.6142824 2.88570475,20.2966429 C2.88570475,20.0341389 2.75445277,19.8372609 2.75445277,19.574757 C2.82007876,19.443505 2.95133074,19.443505 3.08258273,19.443505 C3.21383471,19.312253 3.34508669,19.115375 3.34508669,18.918497 C3.47633868,18.7216191 3.67321665,18.6559931 3.73884265,18.3934891 L4.1325986,17.9997331 C4.39510256,17.2122212 4.59198054,16.421428 4.65760653,15.5663214 C4.59198054,15.3694434 4.52635455,15.2381914 4.32947657,15.1725654 C4.06697261,15.1725654 3.80446864,15.1069394 3.54196467,15.3038174 C3.41071269,15.1725654 3.21383471,15.1725654 3.01695674,15.1725654 C2.55757479,15.4350694 2.03256686,15.6319474 1.50362136,15.6319474 C1.50362136,15.4350694 1.56924736,15.3038174 1.50362136,15.1725654 C1.89737731,14.7788095 2.61926323,15.0413134 2.88504849,14.5163055 C2.88504849,14.3194275 2.68817052,14.2538015 2.55691853,14.1225496 C2.68817052,13.7287936 2.88504849,13.3350376 2.8194225,12.9412817 C2.74577447,12.7983206 2.70116581,12.6421902 2.68817052,12.4818998 C3.14755246,12.5475257 3.47568242,12.2193958 3.67256039,11.8256398 L3.80381238,11.8256398 C4.00069035,12.0225178 4.19756833,12.2850218 4.4600723,12.4162738 C4.85382825,12.4818998 5.31321019,12.3506478 5.57571416,12.0225178 C5.57571416,11.8912658 5.44446217,11.8256398 5.37883618,11.7600138 C4.91945424,11.6287619 4.4600723,11.4975099 4.00069035,11.4975099 C3.41005643,11.2350059 2.95067448,10.775624 2.356103,10.447494 C2.15922502,10.18499 1.96234705,9.98811207 1.83109506,9.65998211 L2.09359903,9.39747814 C2.09359903,9.26622616 2.09359903,9.13497417 1.96234705,9.00372219 C2.07700111,8.76041397 2.23236125,8.53847092 2.42172899,8.34746227 L2.42172899,8.21621029 C2.15922502,7.82245434 1.83109506,7.88808033 1.43733911,7.95370632 C1.24046114,7.82245434 1.24046114,7.55995037 1.24046114,7.36307239 C1.37171312,7.10056843 1.69984308,6.96931644 1.83109506,6.70681247 C1.76546907,6.31305652 1.30608713,6.24743053 1.17483514,5.85367458 C0.977957169,5.39429264 1.10920915,4.8692847 0.977957169,4.40662146 C0.846705186,4.34099547 0.781079194,4.20974349 0.715453202,4.0784915 C0.781079194,3.55348357 1.30608713,3.61910956 1.69984308,3.42223158 C1.97394626,3.43374003 2.23282601,3.55141264 2.42172899,3.75036154 C2.55298097,3.61910956 2.68423296,3.48785757 2.55298097,3.2909796 C2.74985895,3.22535361 2.94673692,3.2909796 3.07798891,3.09410162 C3.07798891,2.83159766 2.85092298,2.39452855 3.07798891,2.24096373 C3.30505484,2.08739891 3.40611887,2.63471968 3.60299684,2.83159766 C3.99675279,2.89722365 4.45613474,2.96284964 4.7186387,2.70034567 C4.65301271,2.5034677 4.7842647,2.37221571 4.91551668,2.24096373 C5.11239465,2.24096373 5.24364664,2.10971175 5.44052461,2.17533774 C5.76865457,1.97845976 6.03115854,1.7159558 6.29366251,1.45345183 C6.29366251,1.32219984 6.42491449,1.25657385 6.3592885,1.12532187 C6.49054048,0.994069885 6.62179247,0.928443893 6.75304445,0.79719191 C7.1468004,0.79719191 7.54055635,0.600313934 7.9343123,0.600313934 C8.26244226,0.928443893 8.72182421,1.12532187 9.18120615,1.05969588 C9.44371012,0.862817902 9.83746607,0.862817902 10.165596,0.862817902 C10.296848,0.994069885 10.296848,1.19094786 10.493726,1.32219984 L10.624978,1.32219984 C10.75623,1.25657385 10.8874819,1.19094786 10.9531079,1.05969588 C11.0187339,1.05969588 11.1499859,0.994069885 11.2156119,1.12532187 C11.4781159,1.12532187 11.7406198,0.994069885 12.0031238,1.12532187 C12.2000018,1.51907782 12.5937577,1.84720778 12.8562617,2.17533774 C12.7906357,2.37221571 12.9218877,2.56909369 12.9218877,2.76597166 C12.9875137,2.83159766 12.9875137,2.96284964 13.1187657,3.02847563 C13.3156436,3.09410162 13.5125216,3.22535361 13.7093996,3.15972762 C13.9062776,3.55348357 14.0375295,3.94723952 14.3656595,4.20974349 C14.8906674,4.20974349 15.1531714,4.73475142 15.0875454,5.19413336 C15.2199479,5.40628938 15.3738906,5.60421568 15.5469274,5.78476729 C15.8750573,5.85039328 16.1375613,5.65351531 16.4000653,5.45663733 C16.5313172,5.65351531 16.5313172,5.91601927 16.5313172,6.11289725 C16.3977676,6.32964311 16.3294213,6.58024613 16.3344393,6.83478316 C16.2112731,7.0075673 16.1426988,7.21329007 16.1375613,7.42541708 C16.3344393,7.62229506 16.7938212,7.68792105 16.7281952,8.081677 C16.5352423,8.26183552 16.3594813,8.45956674 16.2031873,8.67231093 L16.2031873,8.86918891 C16.4000653,9.00044089 16.6625692,9.06606688 16.7938212,9.26294486 L16.7938212,9.39419684 C17.4500811,10.0504568 18.1752483,11.1700362 19.2278892,10.84125 C19.4903932,11.1037539 19.5560192,11.5631359 19.8841492,11.8256398 C20.3435311,11.9568918 20.802913,11.9568918 21.262295,12.0225178 C21.459173,12.1537698 21.7216769,12.2850218 21.9185549,12.4162738 C21.9185549,12.4818998 21.9185549,12.5475257 21.9841809,12.5475257 C22.0498069,12.6131517 21.8529289,12.6787777 21.9185549,12.7444037 C21.5904249,13.0725337 21.524799,13.5319156 21.393547,13.9256716 C21.2482044,13.9899303 21.1150077,14.0787281 20.999791,14.1881755 C20.934165,14.5163055 21.131043,14.7131835 21.393547,14.8444355 C21.6560509,14.8444355 21.8529289,15.0413134 22.1154329,15.1069394 C22.3123109,15.3694434 22.3123109,15.7631993 22.0498069,15.9600773 C21.5904249,15.9600773 21.131043,15.8288253 20.802913,16.2225813 L20.802913,16.3538333 C21.065417,17.0100932 21.8529289,16.8788412 22.4475004,17.0100932 L22.7100044,17.2725972 C22.8412563,17.9944831 23.5631423,18.191361 24.1537762,18.388239 C24.6787841,18.453865 25.1381661,18.256987 25.6671116,18.388239 C26.0608675,18.847621 26.1264935,19.3726289 26.3233715,19.9009181 C26.5858754,20.2946741 27.1108834,20.4915521 27.4390133,20.0977961 C27.630324,19.6577376 27.7627191,19.1943546 27.8327693,18.7196503 C27.8983953,18.5883983 27.9640213,18.4571463 28.0952733,18.3915203 C28.5546552,18.3258943 28.7515332,17.9321384 29.0796631,17.6040084 L29.4077931,17.6040084 C30.064053,17.9321384 30.523435,18.7196503 31.3811667,18.6540243 C31.5780446,18.7852763 31.7749226,18.8509023 31.9061746,19.0477802 C32.0163408,19.3459886 31.938998,19.6811408 31.7092966,19.9009181 C31.3811667,19.8352921 31.0530367,19.6384142 30.7249067,19.7040402 C30.4624028,19.8352921 30.3967768,20.0977961 30.1998988,20.2290481 C30.0686468,20.1634221 30.0030208,20.3603001 29.8717689,20.2946741 C29.4123869,20.68843 30.0686468,21.213438 30.0686468,21.6728199 C30.3311508,22.1322019 30.7249067,22.3290798 31.1842887,22.4603318 C31.3811667,22.5915838 31.3811667,22.7884618 31.5124186,22.9853397 C31.3155407,23.3790957 30.9874107,23.6415997 30.8561587,24.1009816 C30.8668245,24.3651871 30.844782,24.6296976 30.7905327,24.8884935 C30.7249067,25.0197455 30.5936548,25.0197455 30.5280288,25.0853715 C30.1342728,25.0853715 29.7405169,25.2166235 29.3467609,25.4135014 C29.084257,26.0697614 29.2811349,26.7916473 28.887379,27.386875 L28.887379,27.911883 C29.2155089,28.3712649 29.3467609,28.8306468 29.4123869,29.3589361 C29.5436389,29.62144 29.7405169,29.752692 29.9373948,29.883944 C30.1342728,30.4745779 30.1998988,31.0652119 30.2655248,31.6597833 C30.4414025,31.9734756 30.7071877,32.1053838 30.9696917,32.3029181 Z" id="Shape"></path>
                    </g>
                </g>
            </g>
        </g>
    </g>
</svg>