<?xml version="1.0" encoding="UTF-8"?>
<svg width="48px" height="48px" viewBox="0 0 48 48" version="1.1" xmlns="http://www.w3.org/2000/svg" xmlns:xlink="http://www.w3.org/1999/xlink">
    <!-- Generator: Sketch 45.2 (43514) - http://www.bohemiancoding.com/sketch -->
    <title>App Store</title>
    <desc>Created with Sketch.</desc>
    <defs></defs>
    <g id="SWIFT" stroke="none" stroke-width="1" fill="none" fill-rule="evenodd">
        <g id="Desktop-HD" transform="translate(-1034.000000, -1606.000000)" stroke="#FFFFFF">
            <g id="Content" transform="translate(1.000000, 890.863281)">
                <g id="Bonus-Copy-2" transform="translate(957.000000, 704.571564)">
                    <g id="App-Store" transform="translate(75.000000, 10.000000)">
                        <polygon id="Path-2" points="13.2698626 30.3565255 22.3409484 14.6013428 25.1467382 16.2529667 15.9709521 31.9375868"></polygon>
                        <polygon id="Path-3" points="12.4825873 31.7603882 15.2153509 33.4264414 12.1735897 35.6358799"></polygon>
                        <polyline id="Path-4" points="17.8669938 22.3164289 7.91449058 22.3164289 7.91449058 27.3687861 14.9088169 27.3687861"></polyline>
                        <path d="M21.6471115,22.2792999 L29.1779604,22.2792999" id="Path-5"></path>
                        <path d="M18.7387331,27.4377651 L31.6197344,27.4377651" id="Path-6"></path>
                        <path d="M24.1915907,10.631357 C23.4405801,10.9726623 27.2334392,18.8922884 30.8107558,25.7866691 C32.8546096,29.7256847 34.0450247,29.0513802 34.5625429,28.7288331 C35.1820024,28.3427504 35.879654,27.1929953 34.0450247,24.3168189 C29.5215012,17.2252218 24.9426013,10.2900517 24.1915907,10.631357 Z" id="Path-7"></path>
                        <polyline id="Path-8" points="35.3434833 27.390606 41.8324331 27.390606 41.8324331 22.2750767 32.8113218 22.2750767"></polyline>
                        <circle id="Oval" cx="24.7813978" cy="24.8929855" r="23.0392157"></circle>
                        <path d="M37.6036002,33.671915 C38.2027602,33.3547767 38.6646797,33.3134708 39.1091717,33.8591436 C39.5205819,35.0368304 39.6841724,36.1270617 39.5999429,37.1298376 C38.33654,36.541458 37.4623959,35.8273262 36.9775105,34.9874424 C36.7066672,34.5183069 37.0044402,33.9890533 37.6036002,33.671915 Z" id="Path-12"></path>
                        <path d="M35.2093966,29.59195 C34.6296797,30.010114 34.4749713,31.4773709 34.9788802,32.2777305 C35.4827891,33.0780901 36.6740874,33.1771269 37.2191129,32.7839868 C37.7641383,32.3908467 38.0043326,31.3997213 37.4395992,30.5027539 C36.8748658,29.6057865 35.7891135,29.1737861 35.2093966,29.59195 Z" id="Path-11"></path>
                    </g>
                </g>
            </g>
        </g>
    </g>
</svg>