<?xml version="1.0" encoding="UTF-8"?>
<svg width="43px" height="51px" viewBox="0 0 43 51" version="1.1" xmlns="http://www.w3.org/2000/svg" xmlns:xlink="http://www.w3.org/1999/xlink">
    <!-- Generator: Sketch 45.2 (43514) - http://www.bohemiancoding.com/sketch -->
    <title>Apple Logo Line</title>
    <desc>Created with Sketch.</desc>
    <defs></defs>
    <g id="SWIFT" stroke="none" stroke-width="1" fill="none" fill-rule="evenodd">
        <g id="Desktop-HD" transform="translate(-1248.000000, -1605.000000)" stroke="#FFFFFF">
            <g id="Content" transform="translate(1.000000, 890.863281)">
                <g id="Bonus" transform="translate(1168.000000, 704.571564)">
                    <g id="Apple-Logo-Line" transform="translate(79.000000, 10.000000)">
                        <path d="M40.566551,17.6283318 C32.6454515,8.74620808 27.37518,14.4439685 21.7623227,14.8932614 C17.4292894,14.4324058 12.7536703,9.26289488 4.44373426,16.2607966 C1.48434781,20.1506487 -1.81861554,26.7714418 3.23130422,38.7067748 C5.16987083,42.3090465 5.8187026,43.848205 8.07078313,46.5010151 C14.5055821,52.3841088 15.1679587,48.1389519 22.2674469,47.5512372 C28.5020462,48.1961046 30.2341363,51.9685129 35.3593787,47.1775973 C37.7366666,43.9971984 39.7366806,42.6483287 41.7829454,36.8280038 C36.3990292,35.22013 30.8277976,23.4883002 40.566551,17.6283318 Z" id="Path-3"></path>
                        <path d="M25.1442427,4.83837414 C23.0887278,7.19416549 22.0572155,9.81788075 22.1437704,13.5846729 C25.7741229,12.9962975 32.7118544,11.230203 33.1502453,0.880609519 C29.3652832,1.24037418 27.495432,2.26154736 25.1442427,4.83837414 Z" id="Path-4"></path>
                    </g>
                </g>
            </g>
        </g>
    </g>
</svg>