<?xml version="1.0" encoding="UTF-8"?>
<svg width="42px" height="49px" viewBox="0 0 42 49" version="1.1" xmlns="http://www.w3.org/2000/svg" xmlns:xlink="http://www.w3.org/1999/xlink">
    <!-- Generator: Sketch 45.2 (43514) - http://www.bohemiancoding.com/sketch -->
    <title>Brain Money</title>
    <desc>Created with Sketch.</desc>
    <defs></defs>
    <g id="SWIFT" stroke="none" stroke-width="1" fill="none" fill-rule="evenodd">
        <g id="Desktop-HD" transform="translate(-1247.000000, -1776.000000)">
            <g id="Content" transform="translate(1.000000, 890.863281)">
                <g id="Bonus-Copy" transform="translate(1167.000000, 874.571564)">
                    <g id="Brain-Money" transform="translate(78.431373, 10.000000)">
                        <path d="M18.9641826,23.1783941 L18.9641826,23.6605495 C18.9641826,23.9065504 18.7649716,24.1060765 18.5175528,24.1060765 C18.2725759,24.1060765 18.0733649,23.9065504 18.0733649,23.6605495 L18.0733649,23.2413318 C17.7022761,23.2251839 17.337489,23.1579137 17.0306772,23.0621285 C16.7404072,22.9724087 16.5713652,22.6708745 16.6473002,22.3769022 L16.6736096,22.2773361 C16.7027548,22.1609918 16.7808165,22.0626859 16.8893625,22.005656 C16.9954667,21.9502802 17.1216573,21.9413791 17.2351659,21.9843091 C17.5493034,22.1016774 17.9179503,22.1864347 18.3104646,22.1864347 C18.8280669,22.1864347 19.1826925,21.986751 19.1826925,21.622279 C19.1826925,21.2776572 18.8923438,21.0579657 18.2183817,20.8308698 C17.2452485,20.5027111 16.5814479,20.0483617 16.5814479,19.1673115 C16.5814479,18.366056 17.1455248,17.738805 18.1185792,17.5469983 L18.1185792,17.1291198 C18.1185792,16.8831189 18.3181842,16.6834352 18.5641851,16.6834352 C18.8101859,16.6834352 19.0097909,16.8831189 19.0097909,17.1291198 L19.0097909,17.4835879 C19.3390524,17.4987907 19.6104174,17.5431386 19.8377496,17.6025317 C20.1153376,17.67697 20.2833555,17.9608596 20.211359,18.2409682 L20.2036395,18.2735792 C20.1695318,18.4037084 20.0838293,18.5146963 19.9663822,18.5818877 C19.8504317,18.6471099 19.7102199,18.6626277 19.5815873,18.6232423 C19.3629987,18.5564448 19.0906884,18.5020142 18.7546526,18.5020142 C18.1642662,18.5020142 17.9723808,18.7570737 17.9723808,19.0109517 C17.9723808,19.3113831 18.2914809,19.5027959 19.0653242,19.7934598 C20.1470034,20.1769943 20.5834718,20.6770307 20.5834718,21.4947492 C20.5835506,22.3051421 20.0107301,22.9966701 18.9641826,23.1783941 Z" id="Shape" fill="#FFFFFF" fill-rule="nonzero"></path>
                        <circle id="Oval-4" stroke="#FFFFFF" cx="18.5862881" cy="20.4153504" r="9.89428188"></circle>
                        <circle id="Oval-4-Copy" stroke="#FFFFFF" cx="18.5862881" cy="20.4153504" r="7.71602033"></circle>
                        <path d="M8.87516793,47.3039745 C8.91046038,47.7596102 9.1872093,48.0996643 9.70541468,48.3241367 C14.9805428,48.3241367 19.9776221,48.3241367 24.6966526,48.3241367 C25.1952797,48.2688502 25.4550181,47.9564652 25.6013837,47.5660345 C25.8885181,46.6010403 25.4966031,46.2727347 25.6013837,45.2835384 C25.7330962,43.882507 27.0288062,42.9737594 27.8875845,42.9441066 C30.5890268,42.9441066 30.8687722,42.9441066 33.7453283,42.9441066 C35.3572024,42.9485903 35.9634723,42.3409738 36.3801626,40.6655102 C37.0883533,36.0949732 36.7958112,34.4937647 37.149769,30.9521302 C38.9550862,31.0418506 39.3243805,31.0397919 40.3621492,30.9521302 C40.871605,30.9090957 41.2546363,30.6542772 41.1584686,30.0955604 C39.8506266,19.594174 38.5384424,14.9196489 36.8288234,10.3546793 C34.8492988,4.34875604 27.6535872,1.81679111 23.4286642,1.61310522 C15.7443149,1.24263846 11.9100915,1.47447689 7.36793275,4.68158646 C2.825774,7.88869604 2.66463977,10.5854579 1.75782013,16.9143696 C0.851000486,23.2432812 1.75782013,27.349672 3.19882919,30.5723962 C4.30705356,33.0508688 5.62503295,33.4385236 7.10840752,34.3456516 C8.1920538,35.1178601 8.78097394,36.2044473 8.87516793,37.6054133 C8.83987547,43.615485 8.83987547,46.8483387 8.87516793,47.3039745 Z" id="Path-13" stroke="#FFFFFF"></path>
                    </g>
                </g>
            </g>
        </g>
    </g>
</svg>