<?xml version="1.0" encoding="UTF-8"?>
<svg width="52px" height="47px" viewBox="0 0 52 47" version="1.1" xmlns="http://www.w3.org/2000/svg" xmlns:xlink="http://www.w3.org/1999/xlink">
    <!-- Generator: Sketch 45.2 (43514) - http://www.bohemiancoding.com/sketch -->
    <title>Certificate</title>
    <desc>Created with Sketch.</desc>
    <defs></defs>
    <g id="SWIFT" stroke="none" stroke-width="1" fill="none" fill-rule="evenodd">
        <g id="Desktop-HD" transform="translate(-1031.000000, -1777.000000)" stroke="#FFFFFF">
            <g id="Content" transform="translate(1.000000, 890.863281)">
                <g id="Bonus-Copy-3" transform="translate(956.000000, 874.571564)">
                    <g id="Certificate" transform="translate(72.549020, 10.000000)">
                        <circle id="Oval" cx="12.0461549" cy="30.8823529" r="3.43137255"></circle>
                        <circle id="Oval-Copy" cx="12.0461549" cy="30.8823529" r="4.72712819"></circle>
                        <polygon id="Star" points="12.254902 37.7357692 11.0625513 38.4105586 10.1370799 37.4003392 8.79456563 37.6736454 8.22656494 36.4268832 6.86530176 36.2719531 6.71037171 34.91069 5.46360952 34.3426893 5.73691574 33.000175 4.72669629 32.0747036 5.40148567 30.8823529 4.72669629 29.6900023 5.73691574 28.7645308 5.46360952 27.4220166 6.71037171 26.8540159 6.86530176 25.4927527 8.22656494 25.3378227 8.79456563 24.0910605 10.1370799 24.3643667 11.0625513 23.3541473 12.254902 24.0289366 13.4472526 23.3541473 14.3727241 24.3643667 15.7152383 24.0910605 16.283239 25.3378227 17.6445022 25.4927527 17.7994322 26.8540159 19.0461944 27.4220166 18.7728882 28.7645308 19.7831076 29.6900023 19.1083183 30.8823529 19.7831076 32.0747036 18.7728882 33.000175 19.0461944 34.3426893 17.7994322 34.91069 17.6445022 36.2719531 16.283239 36.4268832 15.7152383 37.6736454 14.3727241 37.4003392 13.4472526 38.4105586"></polygon>
                        <path d="M8.83333333,38.7352941 L8.83333333,43.7854549 L11.0294118,42.6470177 L13.2254902,43.7854549 L13.2254902,38.7352941 L8.83333333,38.7352941 Z" id="Rectangle-7"></path>
                        <path d="M14.7637217,38.799675 L14.7637217,46.1865063 L11.7745098,44.767916 L11.7745098,47.7830431 L14.286486,46.749582 L16.1666667,47.711839 L16.1666667,38.8625089 C16.1332526,38.8788676 16.099117,38.893193 16.064207,38.9054871 C15.760159,39.0125625 15.3427011,38.971665 14.7637217,38.799675 Z" id="Rectangle-8"></path>
                        <rect id="Rectangle-6" x="34.3235294" y="30.8921569" width="9.29411765" height="2.40303423"></rect>
                        <rect id="Rectangle-4" x="9.81372549" y="20.1078431" width="33.8039216" height="1"></rect>
                        <rect id="Rectangle-5" x="22.0686275" y="25.5" width="21.5490196" height="1"></rect>
                        <rect id="Rectangle" x="1.97058824" y="2.46078431" width="50.4705882" height="37.2352941"></rect>
                        <rect id="Rectangle-2" x="9.81372549" y="6.90088734" width="33.8039216" height="2.40303423"></rect>
                        <rect id="Rectangle-3" x="9.81372549" y="14.7156863" width="33.8039216" height="1"></rect>
                    </g>
                </g>
            </g>
        </g>
    </g>
</svg>