<?xml version="1.0" encoding="UTF-8"?>
<svg width="114px" height="37px" viewBox="0 0 114 37" version="1.1" xmlns="http://www.w3.org/2000/svg" xmlns:xlink="http://www.w3.org/1999/xlink">
    <!-- Generator: Sketch 45.2 (43514) - http://www.bohemiancoding.com/sketch -->
    <title>Lenovo Copy</title>
    <desc>Created with Sketch.</desc>
    <defs></defs>
    <g id="Welcome" stroke="none" stroke-width="1" fill="none" fill-rule="evenodd">
        <g id="Desktop-HD" transform="translate(-484.000000, -2011.000000)" stroke="#3B3E43" fill-rule="nonzero">
            <g id="Termini" transform="translate(78.000000, 1691.000000)">
                <g id="Picker" transform="translate(0.000000, 162.000000)">
                    <g id="Apple-IT-Copy-2" transform="translate(370.000000, 129.000000)">
                        <g id="Cisco" transform="translate(33.058824, 26.000000)">
                            <path d="M116.084083,17.1365229 C116.084083,18.669142 114.992165,19.9114698 113.65166,19.9114698 C112.307522,19.9114698 111.215605,18.669142 111.215605,17.1365229 L111.215605,11.2993 C111.215605,9.75838692 112.307522,8.51546663 113.65166,8.51546663 C114.992165,8.51546663 116.084083,9.75838692 116.084083,11.2993 L116.084083,17.1365229 Z M102.701347,25.0460322 C102.701347,26.5780589 101.612544,27.8227565 100.238306,27.8227565 C98.8941676,27.8227565 97.805364,26.5780589 97.805364,25.0460322 L97.805364,11.5474913 C97.805364,10.0065783 98.8941676,8.76365796 100.238306,8.76365796 C101.612544,8.76365796 102.701347,10.0065783 102.701347,11.5474913 L102.701347,25.0460322 Z M89.2911067,36.0464035 C89.2911067,37.5790226 88.2023031,38.8219429 86.8586841,38.8219429 C85.5145462,38.8219429 84.4257426,37.5790226 84.4257426,36.0464035 L84.4257426,6.51964124 C84.4257426,4.97813571 85.5145462,3.73580785 86.8586841,3.73580785 C88.2023031,3.73580785 89.2911067,4.97813571 89.2911067,6.51964124 L89.2911067,36.0464035 Z M75.8777521,25.0460322 C75.8777521,26.5780589 74.7894675,27.8227565 73.4453296,27.8227565 C72.1043055,27.8227565 71.0123881,26.5780589 71.0123881,25.0460322 L71.0123881,11.5474913 C71.0123881,10.0065783 72.1043055,8.76365796 73.4453296,8.76365796 C74.7894675,8.76365796 75.8777521,10.0065783 75.8777521,11.5474913 L75.8777521,25.0460322 Z M62.4675114,17.1365229 C62.4675114,18.669142 61.3792267,19.9114698 60.0428734,19.9114698 C58.6987355,19.9114698 57.6026663,18.669142 57.6026663,17.1365229 L57.6026663,11.2993 C57.6026663,9.75838692 58.6987355,8.51546663 60.0428734,8.51546663 C61.3792267,8.51546663 62.4675114,9.75838692 62.4675114,11.2993 L62.4675114,17.1365229 Z M49.0790674,25.0460322 C49.0790674,26.5780589 47.9824793,27.8227565 46.6388603,27.8227565 C45.2947224,27.8227565 44.1981342,26.5780589 44.1981342,25.0460322 L44.1981342,11.5474913 C44.1981342,10.0065783 45.2947224,8.76365796 46.6388603,8.76365796 C47.9824793,8.76365796 49.0790674,10.0065783 49.0790674,11.5474913 L49.0790674,25.0460322 Z M35.6750544,36.0464035 C35.6750544,37.5790226 34.5784662,38.8219429 33.2343283,38.8219429 C31.8907093,38.8219429 30.7941211,37.5790226 30.7941211,36.0464035 L30.7941211,6.51964124 C30.7941211,4.97813571 31.8907093,3.73580785 33.2343283,3.73580785 C34.5784662,3.73580785 35.6750544,4.97813571 35.6750544,6.51964124 L35.6750544,36.0464035 Z M22.2705223,25.0460322 C22.2705223,26.5780589 21.1744531,27.8227565 19.8303152,27.8227565 C18.4861773,27.8227565 17.3901081,26.5780589 17.3901081,25.0460322 L17.3901081,11.5474913 C17.3901081,10.0065783 18.4861773,8.76365796 19.8303152,8.76365796 C21.1744531,8.76365796 22.2705223,10.0065783 22.2705223,11.5474913 L22.2705223,25.0460322 Z M8.86650923,17.1365229 C8.86650923,18.669142 7.77044002,19.9114698 6.42630211,19.9114698 C5.08372112,19.9114698 3.98609499,18.669142 3.98609499,17.1365229 L3.98609499,11.2993 C3.98609499,9.75838692 5.08372112,8.51546663 6.42630211,8.51546663 C7.77044002,8.51546663 8.86650923,9.75838692 8.86650923,11.2993 L8.86650923,17.1365229 Z" id="path53690" transform="translate(60.035089, 21.278875) scale(1, -1) translate(-60.035089, -21.278875) "></path>
                        </g>
                    </g>
                </g>
            </g>
        </g>
    </g>
</svg>