<?xml version="1.0" encoding="UTF-8"?>
<svg width="84px" height="36px" viewBox="0 0 84 36" version="1.1" xmlns="http://www.w3.org/2000/svg" xmlns:xlink="http://www.w3.org/1999/xlink">
    <!-- Generator: Sketch 45.2 (43514) - http://www.bohemiancoding.com/sketch -->
    <title>IBM</title>
    <desc>Created with Sketch.</desc>
    <defs></defs>
    <g id="Welcome" stroke="none" stroke-width="1" fill="none" fill-rule="evenodd">
        <g id="Desktop-HD" transform="translate(-499.000000, -1884.000000)" stroke="#3B3E43">
            <g id="Termini" transform="translate(78.000000, 1691.000000)">
                <g id="Picker" transform="translate(0.000000, 162.000000)">
                    <g id="Apple-IT-Copy" transform="translate(370.000000, 0.000000)">
                        <g id="IBM" transform="translate(48.000000, 26.000000)">
                            <g id="I" transform="translate(3.356563, 5.290101)">
                                <polygon id="Path-5-Copy-7" points="0.264322036 32.0529312 0.264322036 34.2963026 16.028321 34.2963026 16.028321 32.0529312"></polygon>
                                <polygon id="Path-5-Copy-6" points="0.264322036 27.5240104 0.264322036 29.7673818 16.028321 29.7673818 16.028321 27.5240104"></polygon>
                                <polygon id="Path-5-Copy-5" points="4.93110094 22.9950895 4.93110094 25.238461 11.200678 25.238461 11.200678 22.9950895"></polygon>
                                <polygon id="Path-5-Copy-4" points="4.93110094 18.4661687 4.93110094 20.7095402 11.200678 20.7095402 11.200678 18.4661687"></polygon>
                                <polygon id="Path-5-Copy-3" points="4.93110094 13.9372479 4.93110094 16.1806194 11.200678 16.1806194 11.200678 13.9372479"></polygon>
                                <polygon id="Path-5-Copy-2" points="4.93110094 9.40832707 4.93110094 11.6516985 11.200678 11.6516985 11.200678 9.40832707"></polygon>
                                <polygon id="Path-5-Copy" points="0.264322036 4.87940625 0.264322036 7.12277771 16.028321 7.12277771 16.028321 4.87940625"></polygon>
                                <polygon id="Path-5" points="0.264322036 0.350485429 0.264322036 2.59385689 16.028321 2.59385689 16.028321 0.350485429"></polygon>
                            </g>
                            <g id="B" transform="translate(20.921426, 5.290101)">
                                <path d="M0.704916095,32.0529312 L0.704916095,34.2963026 C8.74473805,34.2963026 14.7226759,34.2963026 18.6387297,34.2963026 C20.4494971,34.0889859 22.0024131,33.3411954 23.2974775,32.0529312 L0.704916095,32.0529312 Z" id="Path-5-Copy-7"></path>
                                <path d="M0.704916095,27.5240104 L0.704916095,29.7673818 C12.7078718,29.7673818 20.9035593,29.7673818 25.2919787,29.7673818 C25.9820279,28.9994494 26.3858072,28.251659 26.5033167,27.5240104 L0.704916095,27.5240104 Z" id="Path-5-Copy-6"></path>
                                <path d="M20.1594947,22.9950895 L20.1594947,25.238461 L26.4290718,25.238461 C26.2622008,24.3766716 25.8314406,23.6288811 25.136791,22.9950895 C24.0210646,22.9950895 22.3619659,22.9950895 20.1594947,22.9950895 Z" id="Path-5-Copy-11"></path>
                                <path d="M20.2337397,9.40832707 L20.2337397,11.6516985 C22.5642332,11.6516985 24.3534612,11.6516985 25.6014237,11.6516985 C26.1214432,11.1900773 26.4220742,10.4422868 26.5033167,9.40832707 L20.2337397,9.40832707 Z" id="Path-5-Copy-8"></path>
                                <polygon id="Path-5-Copy-5" points="5.371695 22.9950895 5.371695 25.238461 11.641272 25.238461 11.641272 22.9950895"></polygon>
                                <path d="M5.371695,18.4661687 L5.371695,20.7095402 L24.8671798,20.7095402 C24.6420917,20.0858156 24.0696561,19.3380252 23.1498728,18.4661687 C19.9091976,18.4661687 13.9831384,18.4661687 5.371695,18.4661687 Z" id="Path-5-Copy-4"></path>
                                <path d="M5.371695,13.9372479 L5.371695,16.1806194 C13.9463317,16.1806194 19.872391,16.1806194 23.1498728,16.1806194 C23.9990727,15.5083379 24.5715084,14.7605474 24.8671798,13.9372479 L5.371695,13.9372479 Z" id="Path-5-Copy-3"></path>
                                <polygon id="Path-5-Copy-2" points="5.371695 9.40832707 5.371695 11.6516985 11.641272 11.6516985 11.641272 9.40832707"></polygon>
                                <path d="M0.704916095,4.87940625 L0.704916095,7.12277771 L26.5033167,7.12277771 C26.3102563,6.21260258 25.7792234,5.46481209 24.910218,4.87940625 C20.3732998,4.87940625 12.3048659,4.87940625 0.704916095,4.87940625 Z" id="Path-5-Copy"></path>
                                <path d="M0.704916095,0.350485429 L0.704916095,2.59385689 L23.2974775,2.59385689 C22.2598997,1.18923112 20.6499958,0.441440629 18.4677657,0.350485429 C14.6246477,0.350485429 8.70369787,0.350485429 0.704916095,0.350485429 Z" id="Path-5"></path>
                            </g>
                            <g id="M" transform="translate(48.358312, 5.290101)">
                                <polygon id="Path-5-Copy-7" points="26.1783432 32.0529312 26.1783432 34.2963026 37.3638219 34.2963026 37.3638219 32.0529312"></polygon>
                                <polygon id="Path-5-Copy-22" points="18.1999521 32.0529312 18.9268659 34.2963026 19.6537798 32.0529312"></polygon>
                                <polygon id="Path-5-Copy-23" points="0.704916095 32.0529312 0.704916095 34.2963026 11.8903948 34.2963026 11.8903948 32.0529312"></polygon>
                                <polygon id="Path-5-Copy-6" points="26.1373096 27.5240104 26.1373096 29.7673818 37.3227883 29.7673818 37.3227883 27.5240104"></polygon>
                                <polygon id="Path-5-Copy-21" points="16.6637019 27.5240104 17.4070224 29.7673818 20.5102856 29.7673818 21.1900299 27.5240104"></polygon>
                                <polygon id="Path-5-Copy-20" points="0.704916095 27.5240104 0.704916095 29.7673818 11.8903948 29.7673818 11.8903948 27.5240104"></polygon>
                                <polygon id="Path-5-Copy-18" points="26.1373096 22.9950895 26.1373096 25.238461 32.4068866 25.238461 32.4068866 22.9950895"></polygon>
                                <polygon id="Path-5-Copy-19" points="14.9928662 22.9950895 16.0585096 25.238461 21.9465066 25.238461 22.826749 22.9950895"></polygon>
                                <polygon id="Path-5-Copy-5" points="5.371695 22.9950895 5.371695 25.238461 11.641272 25.238461 11.641272 22.9950895"></polygon>
                                <polygon id="Path-5-Copy-4" points="5.371695 18.4661687 5.371695 20.7095402 11.641272 20.7095402 11.641272 18.4661687"></polygon>
                                <polygon id="Path-5-Copy-16" points="26.1783432 18.4661687 26.1783432 20.7095402 32.4479202 20.7095402 32.4479202 18.4661687"></polygon>
                                <polygon id="Path-5-Copy-17" points="13.3341266 18.4661687 14.238957 20.7095402 23.9044736 20.7095402 24.5196053 18.4661687"></polygon>
                                <polygon id="Path-5-Copy-15" points="26.1373096 13.9372479 26.1373096 16.1806194 32.4068866 16.1806194 32.4068866 13.9372479"></polygon>
                                <polygon id="Path-5-Copy-14" points="19.8730311 13.9372479 18.9098076 16.1806194 25.0544684 16.1806194 26.1783432 13.9372479"></polygon>
                                <polygon id="Path-5-Copy-13" points="11.641272 13.9372479 12.7154194 16.1806194 18.9098076 16.1806194 17.9781043 13.9372479"></polygon>
                                <polygon id="Path-5-Copy-3" points="5.371695 13.9372479 5.371695 16.1806194 11.641272 16.1806194 11.641272 13.9372479"></polygon>
                                <polygon id="Path-5-Copy-12" points="21.2955476 9.40832707 20.4118231 11.6516985 32.4068866 11.6516985 32.4068866 9.40832707"></polygon>
                                <polygon id="Path-5-Copy-10" points="22.6123446 4.87940625 21.8705514 7.12277771 37.0465798 7.12277771 37.0465798 4.87940625"></polygon>
                                <polygon id="Path-5-Copy-9" points="24.5593481 0.350485429 23.4824694 2.59385689 37.0465798 2.59385689 37.0465798 0.350485429"></polygon>
                                <polygon id="Path-5-Copy-2" points="5.371695 9.40832707 5.371695 11.6516985 17.3667585 11.6516985 16.5056645 9.40832707"></polygon>
                                <polygon id="Path-5-Copy" points="0.704916095 4.87940625 0.704916095 7.12277771 15.8809445 7.12277771 14.8713171 4.87940625"></polygon>
                                <polygon id="Path-5" points="0.704916095 0.350485429 0.704916095 2.59385689 14.2690265 2.59385689 13.129488 0.350485429"></polygon>
                            </g>
                        </g>
                    </g>
                </g>
            </g>
        </g>
    </g>
</svg>