<?xml version="1.0" encoding="UTF-8"?>
<svg width="63px" height="43px" viewBox="0 0 63 43" version="1.1" xmlns="http://www.w3.org/2000/svg" xmlns:xlink="http://www.w3.org/1999/xlink">
    <!-- Generator: Sketch 45.2 (43514) - http://www.bohemiancoding.com/sketch -->
    <title>Lenovo</title>
    <desc>Created with Sketch.</desc>
    <defs></defs>
    <g id="Welcome" stroke="none" stroke-width="1" fill="none" fill-rule="evenodd">
        <g id="Desktop-HD" transform="translate(-324.000000, -2009.000000)" stroke="#3B3E43">
            <g id="Termini" transform="translate(78.000000, 1691.000000)">
                <g id="Picker" transform="translate(0.000000, 162.000000)">
                    <g id="Apple-IT-Copy-3" transform="translate(185.000000, 129.000000)">
                        <g id="Lenovo" transform="translate(60.000000, 26.000000)">
                            <polygon id="Path-6" points="2.16311343 2.2511586 2.16311343 42.6399597 30.0749191 42.6399597 30.0749191 34.8508666 10.708916 34.8508666 10.708916 2.32937429"></polygon>
                            <path d="M41.7648719,34.0502168 C51.6526033,29.8693844 58.8955605,26.7541135 63.4937436,24.7044042 C61.9851247,16.6471855 57.2034816,12.0863941 49.1488144,11.0220298 C43.2189902,10.633861 38.1897624,11.9032923 33.6795854,17.6886308 C32.1387266,19.6651363 29.9482099,25.0876985 31.4271477,30.9879674 C33.1816593,37.4698483 36.723178,40.6285626 42.6545375,42.6104557 C51.246535,44.1785244 57.9343362,42.4365965 62.717941,37.3846718 L57.3630602,33.1366218 C51.9292005,37.1224718 46.7298044,37.4270035 41.7648719,34.0502168 Z" id="Path-7"></path>
                            <path d="M39.2035973,28.2469259 L54.1805293,22.1193485 C51.4824487,18.1885724 48.2896829,16.8556798 44.602232,18.1206707 C40.9147812,19.3856615 39.1152363,22.7610799 39.2035973,28.2469259 Z" id="Path-8"></path>
                        </g>
                    </g>
                </g>
            </g>
        </g>
    </g>
</svg>