<?xml version="1.0" encoding="UTF-8"?>
<svg width="38px" height="43px" viewBox="0 0 38 43" version="1.1" xmlns="http://www.w3.org/2000/svg" xmlns:xlink="http://www.w3.org/1999/xlink">
    <!-- Generator: Sketch 45.2 (43514) - http://www.bohemiancoding.com/sketch -->
    <title>Logic Pro</title>
    <desc>Created with Sketch.</desc>
    <defs></defs>
    <g id="Welcome" stroke="none" stroke-width="1" fill="none" fill-rule="evenodd">
        <g id="Desktop-HD" transform="translate(-338.000000, -2138.000000)" stroke="#3B3E43">
            <g id="Termini" transform="translate(78.000000, 1691.000000)">
                <g id="Picker" transform="translate(0.000000, 162.000000)">
                    <g id="Apple-IT-Copy-5" transform="translate(185.000000, 258.000000)">
                        <g id="Logic-Pro" transform="translate(71.706457, 26.000000)">
                            <rect id="Rectangle" transform="translate(21.917030, 22.747053) rotate(-8.000000) translate(-21.917030, -22.747053) " x="5.83227874" y="3.67011595" width="32.1695023" height="38.1538745" rx="5"></rect>
                            <rect id="Rectangle-4" transform="translate(23.578852, 35.504834) rotate(-8.000000) translate(-23.578852, -35.504834) " x="17.7127983" y="33.1669894" width="11.7321071" height="4.67568846"></rect>
                            <ellipse id="Oval-2" cx="20.8519576" cy="18.2177341" rx="11.6967354" ry="11.6407318"></ellipse>
                            <ellipse id="Oval-2-Copy" cx="20.8519576" cy="18.2177341" rx="10.3119453" ry="10.2625721"></ellipse>
                            <ellipse id="Oval-2-Copy-2" cx="20.8519576" cy="18.2177341" rx="8.80447224" ry="8.76231676"></ellipse>
                            <ellipse id="Oval-2-Copy-3" cx="20.8519576" cy="18.2177341" rx="7.17385687" ry="7.13950872"></ellipse>
                            <ellipse id="Oval-2-Copy-4" cx="20.8519576" cy="18.2177341" rx="4.98823697" ry="4.96435348"></ellipse>
                            <ellipse id="Oval-2-Copy-5" transform="translate(20.851958, 18.217734) scale(1, -1) translate(-20.851958, -18.217734) " cx="20.8519576" cy="18.2177341" rx="1" ry="1"></ellipse>
                        </g>
                    </g>
                </g>
            </g>
        </g>
    </g>
</svg>